<svg width="561" height="362" viewBox="0 0 561 362" fill="none" xmlns="http://www.w3.org/2000/svg">
<path d="M384.44 277.687C399.22 285.047 403.16 304.377 392.4 316.907C366.37 347.237 326.76 365.067 283.57 360.707C246.91 356.997 217.729 341.937 197.339 316.257C187.309 303.627 191.48 284.957 205.92 277.767L206.76 277.347C217.26 272.117 229.81 274.927 237.51 283.777C238.28 284.657 239.07 285.527 239.88 286.377C261.23 308.937 288.03 315.967 317.62 306.977C332.65 302.397 344.68 294.727 353.57 284.257C361.22 275.257 373.88 272.427 384.44 277.687Z" fill="#6366F1"/>
<path d="M339.929 204.857C334.989 204.007 329.859 204.197 324.829 204.147C307.549 203.987 297.049 193.687 297.009 176.527C296.939 153.777 296.989 131.037 297.009 108.287C297.009 106.527 297.239 104.767 297.369 102.657V102.357C308.569 102.377 319.409 102.467 330.209 102.307C343.089 102.127 353.479 93.3172 355.569 81.1672C358.129 66.0872 346.619 52.0172 331.079 51.6672C319.929 51.4272 308.719 51.5672 296.849 51.6072C296.859 42.2372 297.299 33.5672 296.759 24.9772C295.839 10.5372 284.079 0.0371935 270.259 0.627193C256.829 1.19719 245.959 12.6672 245.939 26.7872C245.919 35.0472 245.909 43.3172 245.899 51.5772C234.919 51.5472 224.289 51.4772 213.689 51.6372C200.809 51.8172 190.419 60.6272 188.329 72.7772C185.769 87.8572 197.279 101.927 212.819 102.277C223.589 102.517 234.419 102.387 245.839 102.337C245.829 127.867 245.859 153.387 245.989 178.917C246.109 200.657 254.299 219.257 270.159 234.277C289.659 252.747 313.429 257.297 339.039 254.547C351.279 253.217 360.279 242.117 360.549 230.057C360.769 218.067 352.009 206.987 339.929 204.857Z" fill="#6366F1"/>
<path d="M189.779 203.177C202.449 210.397 208.049 220.867 205.749 234.887C203.959 245.807 194.589 254.977 183.819 257.197C171.359 259.767 160.989 254.857 151.519 241.927C96.2991 272.317 40.0391 245.087 16.6491 208.987C-9.18085 169.117 -4.60086 117.707 28.6991 82.3371C59.6491 49.4671 111.719 41.6771 150.739 64.0871C175.179 78.1271 191.679 98.5971 199.379 125.717C207.049 152.697 203.049 178.547 189.779 203.177ZM101.719 102.257C73.3892 102.167 50.7691 124.767 50.8591 153.087C50.9491 181.267 73.3391 203.927 101.239 204.077C129.569 204.227 152.439 181.317 152.379 152.867C152.329 124.777 129.879 102.347 101.719 102.257Z" fill="#6366F1"/>
<path d="M543.949 203.177C556.619 210.397 562.219 220.867 559.919 234.887C558.129 245.807 548.759 254.977 537.989 257.197C525.529 259.767 515.159 254.857 505.689 241.927C450.469 272.317 394.209 245.087 370.819 208.987C344.989 169.117 349.569 117.707 382.869 82.3371C413.819 49.4671 465.889 41.6771 504.909 64.0871C529.349 78.1271 545.849 98.5971 553.549 125.717C561.229 152.697 557.219 178.547 543.949 203.177ZM455.899 102.257C427.569 102.167 404.949 124.767 405.039 153.087C405.129 181.267 427.519 203.927 455.419 204.077C483.749 204.227 506.619 181.317 506.559 152.867C506.499 124.777 484.049 102.347 455.899 102.257Z" fill="#6366F1"/>
</svg>
