<svg width="500" height="500" viewBox="0 0 500 500" fill="none" xmlns="http://www.w3.org/2000/svg">
<path d="M44.3101 258.15C44.3101 258.15 46.6601 331.15 107.58 379.75C168.5 428.35 252.9 431.87 321.23 436.49C389.56 441.11 442 402.43 450 344C458 285.57 405.7 268.37 377.37 201.8C349.04 135.23 351.56 113.36 291.62 72.42C231.68 31.48 137.86 56.57 88.7001 126.71C39.5401 196.85 44.3101 258.15 44.3101 258.15Z" fill="#6366F1"/>
<path opacity="0.7" d="M44.3101 258.15C44.3101 258.15 46.6601 331.15 107.58 379.75C168.5 428.35 252.9 431.87 321.23 436.49C389.56 441.11 442 402.43 450 344C458 285.57 405.7 268.37 377.37 201.8C349.04 135.23 351.56 113.36 291.62 72.42C231.68 31.48 137.86 56.57 88.7001 126.71C39.5401 196.85 44.3101 258.15 44.3101 258.15Z" fill="white"/>
<path d="M341.49 407.21C381.365 407.21 413.69 397.62 413.69 385.79C413.69 373.96 381.365 364.37 341.49 364.37C301.615 364.37 269.29 373.96 269.29 385.79C269.29 397.62 301.615 407.21 341.49 407.21Z" fill="#263238" stroke="#263238" stroke-width="1.193" stroke-linecap="round" stroke-linejoin="round"/>
<path d="M341.49 374.22C375.64 374.22 404.24 381.22 411.75 390.71C412.936 389.337 413.62 387.602 413.69 385.79C413.69 373.95 381.36 364.36 341.49 364.36C301.62 364.36 269.28 373.95 269.28 385.79C269.35 387.602 270.034 389.337 271.22 390.71C278.73 381.26 307.33 374.22 341.49 374.22Z" fill="white" stroke="#263238" stroke-width="1.193" stroke-linecap="round" stroke-linejoin="round"/>
<path d="M331.63 404.52C307.51 403.43 289.31 398.52 289.31 392.52C289.323 391.865 289.528 391.229 289.9 390.69" stroke="white" stroke-width="1.193" stroke-linecap="round" stroke-linejoin="round"/>
<path d="M387.6 386.68C391.73 388.43 394.09 390.43 394.09 392.56C394.09 399.29 370.63 404.74 341.7 404.74H340.45" stroke="white" stroke-width="1.193" stroke-linecap="round" stroke-linejoin="round"/>
<path d="M296.36 386.45C305.43 382.82 322.36 380.37 341.7 380.37C352.705 380.285 363.696 381.185 374.54 383.06" stroke="white" stroke-width="1.193" stroke-linecap="round" stroke-linejoin="round"/>
<path d="M330.94 396.74C324.83 395.89 320.74 394.34 320.74 392.56C320.74 389.87 330.13 387.69 341.74 387.69C353.35 387.69 362.69 389.87 362.69 392.56C362.69 394.87 355.79 396.8 346.53 397.3" stroke="white" stroke-width="1.193" stroke-linecap="round" stroke-linejoin="round"/>
<path d="M51.52 299.68C83.01 290.73 149.27 273.07 185.84 271.74C235 270 318 305.68 369.82 311.93C421.64 318.18 456.46 316.4 456.46 316.4" stroke="#263238" stroke-width="1.193" stroke-linecap="round" stroke-linejoin="round"/>
<path d="M34 304.79C34 304.79 36.72 303.96 41.49 302.57" stroke="#263238" stroke-width="1.193" stroke-linecap="round" stroke-linejoin="round"/>
<path d="M442.47 249.12C424.318 245.133 405.747 243.376 387.17 243.89C348.75 245.18 307.17 250.26 255.76 256.89C204.35 263.52 131.14 226.89 81.3599 240.48C31.5799 254.07 35.3599 258.16 35.3599 258.16" stroke="#263238" stroke-width="1.193" stroke-linecap="round" stroke-linejoin="round"/>
<path d="M456.63 252.8C456.63 252.8 454.69 252.16 451.18 251.23" stroke="#263238" stroke-width="1.193" stroke-linecap="round" stroke-linejoin="round"/>
<path d="M364.45 158.35C363.897 156.102 362.606 154.105 360.784 152.678C358.963 151.25 356.715 150.474 354.4 150.474C352.085 150.474 349.838 151.25 348.016 152.678C346.194 154.105 344.903 156.102 344.35 158.35H364.45Z" stroke="#263238" stroke-width="1.193" stroke-linecap="round" stroke-linejoin="round"/>
<path d="M466 158.35C465.393 155.789 464.011 153.476 462.042 151.728C460.074 149.98 457.615 148.881 455 148.58C455.822 144.236 455.674 139.764 454.567 135.483C453.459 131.203 451.419 127.221 448.593 123.821C445.766 120.421 442.223 117.688 438.217 115.818C434.211 113.947 429.841 112.985 425.42 113C418.36 113 411.525 115.484 406.112 120.016C400.698 124.548 397.052 130.84 395.81 137.79C392.971 135.57 389.565 134.193 385.981 133.816C382.396 133.438 378.778 134.077 375.54 135.658C372.301 137.238 369.572 139.698 367.664 142.756C365.756 145.813 364.746 149.346 364.75 152.95C364.756 154.785 365.022 156.61 365.54 158.37L466 158.35Z" stroke="#263238" stroke-width="1.193" stroke-linecap="round" stroke-linejoin="round"/>
<path d="M185.57 182.49C185.295 181.343 184.642 180.323 183.715 179.592C182.789 178.862 181.644 178.465 180.465 178.465C179.286 178.465 178.141 178.862 177.215 179.592C176.289 180.323 175.635 181.343 175.36 182.49H185.57Z" stroke="#263238" stroke-width="1.193" stroke-linecap="round" stroke-linejoin="round"/>
<path d="M237.12 182.49C236.816 181.182 236.116 180.001 235.116 179.106C234.115 178.211 232.863 177.647 231.53 177.49C232.011 175.472 232.076 173.378 231.721 171.335C231.367 169.291 230.599 167.342 229.466 165.605C228.333 163.868 226.858 162.38 225.131 161.231C223.404 160.083 221.461 159.299 219.421 158.926C217.38 158.553 215.286 158.6 213.264 159.064C211.243 159.527 209.337 160.398 207.663 161.622C205.988 162.846 204.581 164.399 203.527 166.185C202.473 167.971 201.793 169.953 201.53 172.01C200.089 170.884 198.36 170.185 196.541 169.994C194.722 169.802 192.886 170.126 191.242 170.927C189.598 171.729 188.213 172.977 187.243 174.528C186.274 176.079 185.76 177.871 185.76 179.7C185.765 180.634 185.899 181.563 186.16 182.46L237.12 182.49Z" stroke="#263238" stroke-width="1.193" stroke-linecap="round" stroke-linejoin="round"/>
<path d="M231.93 198.63C231.758 197.906 231.346 197.26 230.762 196.799C230.178 196.337 229.455 196.086 228.71 196.086C227.966 196.086 227.243 196.337 226.659 196.799C226.074 197.26 225.663 197.906 225.49 198.63H231.93Z" stroke="#263238" stroke-width="1.193" stroke-linecap="round" stroke-linejoin="round"/>
<path d="M264.47 198.63C264.276 197.808 263.832 197.067 263.2 196.506C262.569 195.946 261.779 195.595 260.94 195.5C261.049 194.916 261.102 194.324 261.1 193.73C261.07 191.345 260.157 189.055 258.537 187.304C256.918 185.553 254.706 184.465 252.33 184.25C249.955 184.034 247.584 184.708 245.676 186.139C243.767 187.571 242.458 189.659 242 192C241.09 191.29 239.999 190.849 238.851 190.729C237.703 190.609 236.544 190.814 235.507 191.321C234.469 191.828 233.595 192.615 232.984 193.595C232.373 194.574 232.049 195.706 232.05 196.86C232.051 197.449 232.135 198.035 232.3 198.6L264.47 198.63Z" stroke="#263238" stroke-width="1.193" stroke-linecap="round" stroke-linejoin="round"/>
<path d="M162.65 313.83C162.298 313.835 161.952 313.741 161.65 313.56C161.213 313.29 160.896 312.862 160.766 312.365C160.635 311.868 160.701 311.34 160.95 310.89C161.44 310.03 285.08 175.2 341.65 125.76C341.847 125.602 342.097 125.524 342.35 125.542C342.602 125.561 342.838 125.674 343.01 125.86C343.174 126.059 343.256 126.313 343.237 126.57C343.219 126.827 343.101 127.067 342.91 127.24C286.62 176.47 164.81 312 164.32 312.85C164.153 313.147 163.911 313.394 163.618 313.566C163.324 313.738 162.99 313.829 162.65 313.83Z" fill="#263238"/>
<path d="M169.48 287C169.48 287 175.61 280.46 179.29 280.46C182.97 280.46 189.92 286.59 189.51 289.86C189.1 293.13 182.97 290.27 182.97 290.27C182.97 290.27 177.24 298.04 171.52 296.81C165.8 295.58 169.48 287 169.48 287Z" fill="#6366F1" stroke="#263238" stroke-width="1.193" stroke-linecap="round" stroke-linejoin="round"/>
<path d="M183 290.25C183 290.25 186.75 292.85 187.08 294.68C187.41 296.51 182.92 301.68 177.93 302.84C172.94 304 170.27 301.17 171.77 298.51C173.27 295.85 179.22 290.49 183 290.25Z" fill="#6366F1" stroke="#263238" stroke-width="1.193" stroke-linecap="round" stroke-linejoin="round"/>
<path d="M337 266.56V131.27C337 131.27 334.27 141.06 334.27 141.77" stroke="#263238" stroke-width="1.193" stroke-linecap="round" stroke-linejoin="round"/>
<path d="M393.42 273.69H289.68V356.81H393.42V273.69Z" fill="#6366F1" stroke="#263238" stroke-width="1.193" stroke-linecap="round" stroke-linejoin="round"/>
<path d="M338.48 273.34V268.58C338.48 268.264 338.354 267.962 338.131 267.738C337.908 267.515 337.605 267.39 337.29 267.39C336.974 267.39 336.672 267.515 336.448 267.738C336.225 267.962 336.1 268.264 336.1 268.58V273.34H338.48Z" fill="#263238"/>
<path d="M348 261.76V262C347.903 261.818 347.759 261.665 347.584 261.558C347.408 261.451 347.206 261.393 347 261.39C346.682 261.39 346.377 261.516 346.151 261.741C345.926 261.966 345.8 262.272 345.8 262.59V275.3C345.8 276.271 345.415 277.203 344.729 277.891C344.043 278.579 343.112 278.967 342.14 278.97C341.637 278.971 341.139 278.865 340.68 278.66C340.415 279.055 340.299 279.532 340.354 280.005C340.409 280.478 340.631 280.916 340.98 281.24C341.363 281.312 341.751 281.349 342.14 281.35C342.935 281.35 343.721 281.193 344.455 280.889C345.189 280.585 345.856 280.14 346.418 279.578C346.98 279.016 347.425 278.349 347.729 277.615C348.034 276.881 348.19 276.094 348.19 275.3V269.41H350.93L348 261.76Z" fill="#263238"/>
<path d="M337.1 130C337.1 130 339.22 122.47 337.34 123.17C335.46 123.87 337.1 130 337.1 130Z" stroke="#263238" stroke-width="1.193" stroke-linecap="round" stroke-linejoin="round"/>
<path d="M337.1 130C337.1 130 329.1 127.17 329.81 129.76C330.52 132.35 337.1 130 337.1 130Z" stroke="#263238" stroke-width="1.193" stroke-linecap="round" stroke-linejoin="round"/>
<path d="M164.59 195.63C164.59 195.63 154.72 190.1 135.36 192.87C116 195.64 112.31 211.6 115.47 228.19C118.63 244.78 136.94 258.83 139.71 257.65C142.48 256.47 138.92 219.33 145.24 212.22C151.56 205.11 172.1 206.3 173.24 200.77C174.38 195.24 164.59 195.63 164.59 195.63Z" fill="#263238" stroke="#263238" stroke-width="1.193" stroke-linecap="round" stroke-linejoin="round"/>
<path d="M130.18 205.48L132.18 218.55C132.18 218.55 119.78 252.4 121.79 257.1C123.8 261.8 142.56 263.46 142.56 263.46C142.56 263.46 173.06 267.15 182.11 263.46C191.16 259.77 186.47 249.05 185.46 246.04C184.45 243.03 178.76 218.89 178.76 218.89C178.76 218.89 180.76 213.19 180.76 210.18C180.76 207.17 180.42 198.78 179.08 196.77C177.74 194.76 154.28 192.41 143.89 194.09C133.5 195.77 128.84 198.45 130.18 205.48Z" fill="#757575" stroke="#263238" stroke-width="1.193" stroke-linecap="round" stroke-linejoin="round"/>
<path d="M135.55 220.57C135.55 220.57 135.21 249.72 136.89 255.42C138.57 261.12 145.27 267.82 159.34 266.14C173.41 264.46 174.76 251.06 174.76 251.06L173.76 219.9L135.55 220.57Z" fill="white" stroke="#263238" stroke-width="1.193" stroke-linecap="round" stroke-linejoin="round"/>
<path d="M159.68 241.51C159.682 242.009 159.536 242.497 159.26 242.913C158.984 243.328 158.591 243.653 158.131 243.845C157.671 244.038 157.164 244.089 156.674 243.993C156.185 243.897 155.735 243.657 155.382 243.305C155.028 242.953 154.787 242.504 154.689 242.015C154.591 241.526 154.64 241.019 154.831 240.558C155.021 240.097 155.344 239.703 155.759 239.425C156.173 239.148 156.661 239 157.16 239C157.49 238.999 157.818 239.063 158.123 239.188C158.429 239.314 158.707 239.498 158.941 239.732C159.175 239.965 159.361 240.242 159.488 240.547C159.615 240.852 159.68 241.18 159.68 241.51Z" stroke="#263238" stroke-width="1.193" stroke-miterlimit="10"/>
<path d="M159.34 252.07C159.34 252.403 159.241 252.728 159.056 253.004C158.871 253.281 158.608 253.496 158.301 253.623C157.993 253.75 157.655 253.783 157.329 253.717C157.002 253.651 156.703 253.49 156.468 253.254C156.234 253.018 156.075 252.718 156.011 252.392C155.947 252.065 155.982 251.727 156.111 251.42C156.239 251.113 156.456 250.852 156.734 250.668C157.011 250.485 157.337 250.388 157.67 250.39C157.89 250.39 158.108 250.433 158.311 250.518C158.515 250.603 158.699 250.726 158.854 250.883C159.01 251.039 159.132 251.224 159.216 251.428C159.299 251.632 159.341 251.85 159.34 252.07Z" fill="#263238"/>
<path d="M149.22 230.76C150.29 231.92 150.66 233.31 150.06 233.88C149.46 234.45 148.06 233.97 147.01 232.82C145.96 231.67 145.56 230.28 146.17 229.71C146.78 229.14 148.15 229.61 149.22 230.76Z" fill="#263238"/>
<path d="M162.83 230.76C161.76 231.92 161.38 233.31 161.99 233.88C162.6 234.45 163.99 233.97 164.99 232.82C165.99 231.67 166.44 230.28 165.83 229.71C165.22 229.14 163.9 229.61 162.83 230.76Z" fill="#263238"/>
<path d="M142.06 226.81C142.811 225.702 143.89 224.857 145.145 224.395C146.401 223.932 147.77 223.874 149.06 224.23" stroke="#263238" stroke-width="1.193" stroke-linecap="round" stroke-linejoin="round"/>
<path d="M162.3 224.6C162.3 224.6 167.08 223.13 168.56 227.18" stroke="#263238" stroke-width="1.193" stroke-linecap="round" stroke-linejoin="round"/>
<path d="M178.44 411.62C178.44 411.62 183.71 408.46 186.63 407.22C186.904 407.094 187.184 406.984 187.47 406.89C190.05 406.03 197.36 406.46 204.23 402.16C211.1 397.86 207.67 392.7 202.51 391.41C197.35 390.12 191.77 388.41 191.77 388.41L190.48 368.2C190.48 368.2 175 372.5 169.84 374.65C164.68 376.8 167.69 407.32 168.12 409.9C168.55 412.48 168.55 414.2 178.44 411.62Z" fill="#263238" stroke="#263238" stroke-width="1.193" stroke-linecap="round" stroke-linejoin="round"/>
<path d="M195.64 402.16C186.64 403.88 186.64 405.6 176.72 407.32C173.814 407.9 170.851 408.142 167.89 408.04C167.99 408.96 168.07 409.61 168.12 409.9C168.55 412.48 168.55 414.2 178.44 411.62C178.44 411.62 183.71 408.46 186.63 407.22C186.903 407.094 187.184 406.984 187.47 406.89C190.05 406.03 197.36 406.46 204.23 402.16C206.44 400.79 207.57 399.32 207.94 397.92C204.035 399.847 199.902 401.272 195.64 402.16Z" fill="white" stroke="#263238" stroke-width="1.193" stroke-linecap="round" stroke-linejoin="round"/>
<path d="M199.22 391.15C199.22 391.15 198.89 414.61 198.22 419.63C197.55 424.65 198.55 431.03 206.22 431.03C213.89 431.03 229.01 426.03 234.37 425.03C239.73 424.03 248.45 421.67 252.13 413.3C255.81 404.93 233.37 405.92 233.37 405.92L234.71 388.83C234.71 388.83 211.62 393.49 199.22 391.15Z" fill="#263238" stroke="#263238" stroke-width="1.193" stroke-linecap="round" stroke-linejoin="round"/>
<path d="M252.17 413.27C252.58 412.457 252.68 411.521 252.45 410.64C250.153 413.759 247.038 416.181 243.45 417.64C235.45 420.99 220.32 424.64 208.93 426.36C203.72 427.12 200.42 426.27 198.35 425.13C199.09 428.38 201.26 431.05 206.25 431.05C213.96 431.05 229.04 426.05 234.4 425.05C239.76 424.05 248.49 421.64 252.17 413.27Z" fill="white" stroke="#263238" stroke-width="1.193" stroke-linecap="round" stroke-linejoin="round"/>
<path d="M233.41 405.89C233.41 405.89 235.08 411.59 230.41 415.28" stroke="white" stroke-width="1.193" stroke-linecap="round" stroke-linejoin="round"/>
<path d="M196.88 378.75C196.88 378.75 196.36 388.94 196.93 390.98C199.07 398.72 199.75 396.91 215.84 396.57C231.93 396.23 238.43 389.81 240.11 385.79C241.79 381.77 240.11 373.05 239.44 370.03C238.77 367.01 233.44 366.03 231.39 366.35C229.34 366.67 197.88 375.4 196.88 378.75Z" fill="#757575" stroke="#263238" stroke-width="1.193" stroke-linecap="round" stroke-linejoin="round"/>
<path d="M86.28 404.22V426.74C86.2875 427.621 86.5354 428.484 86.9972 429.235C87.4589 429.985 88.1168 430.596 88.9 431L125.1 449.69C125.744 450.025 126.456 450.21 127.181 450.231C127.907 450.251 128.628 450.108 129.29 449.81L182.62 429.48C183.471 429.099 184.193 428.479 184.701 427.697C185.208 426.915 185.479 426.003 185.48 425.07V397.85L124.48 416.28L86.28 404.22Z" fill="#6366F1"/>
<mask id="mask0_308_350" style="mask-type:luminance" maskUnits="userSpaceOnUse" x="86" y="397" width="100" height="54">
<path d="M86.28 404.22V426.74C86.2875 427.621 86.5354 428.484 86.9972 429.235C87.4589 429.985 88.1168 430.596 88.9 431L125.1 449.69C125.744 450.025 126.456 450.21 127.181 450.231C127.907 450.251 128.628 450.108 129.29 449.81L182.62 429.48C183.471 429.099 184.193 428.479 184.701 427.697C185.208 426.915 185.479 426.003 185.48 425.07V397.85L124.48 416.28L86.28 404.22Z" fill="white"/>
</mask>
<g mask="url(#mask0_308_350)">
<path opacity="0.18" d="M127.17 415.47L124.49 416.28L86.28 404.22V426.74C86.2875 427.622 86.5354 428.484 86.9972 429.235C87.4589 429.986 88.1168 430.596 88.9 431L125.1 449.69C125.74 450.025 126.448 450.21 127.17 450.23V415.47Z" fill="black"/>
</g>
<path d="M86.28 404.22V426.74C86.2875 427.621 86.5354 428.484 86.9972 429.235C87.4589 429.985 88.1168 430.596 88.9 431L125.1 449.69C125.744 450.025 126.456 450.21 127.181 450.231C127.907 450.251 128.628 450.108 129.29 449.81L182.62 429.48C183.471 429.099 184.193 428.479 184.701 427.697C185.208 426.915 185.479 426.003 185.48 425.07V397.85L124.48 416.28L86.28 404.22Z" stroke="#263238" stroke-width="1.193" stroke-linecap="round" stroke-linejoin="round"/>
<path d="M142 366.2L83.4999 385C83.0427 385.146 82.6441 385.435 82.3618 385.823C82.0795 386.212 81.9283 386.68 81.9299 387.16V403.84C81.9388 404.26 82.0641 404.669 82.2918 405.022C82.5196 405.376 82.8409 405.659 83.2199 405.84L124 425.25C124.275 425.381 124.573 425.456 124.877 425.47C125.181 425.483 125.485 425.436 125.77 425.33L187 402.42C187.433 402.259 187.807 401.97 188.071 401.591C188.336 401.212 188.478 400.762 188.48 400.3L188.59 384.65C188.587 384.132 188.408 383.63 188.083 383.227C187.758 382.824 187.305 382.543 186.8 382.43L143.16 366.14C142.774 366.063 142.376 366.084 142 366.2Z" fill="white"/>
<mask id="mask1_308_350" style="mask-type:luminance" maskUnits="userSpaceOnUse" x="81" y="366" width="108" height="60">
<path d="M142 366.2L83.4999 385C83.0427 385.146 82.6441 385.435 82.3618 385.823C82.0795 386.212 81.9283 386.68 81.9299 387.16V403.84C81.9388 404.26 82.0641 404.669 82.2918 405.022C82.5196 405.376 82.8409 405.659 83.2199 405.84L124 425.25C124.275 425.381 124.573 425.456 124.877 425.47C125.181 425.483 125.485 425.436 125.77 425.33L187 402.42C187.433 402.259 187.807 401.97 188.071 401.591C188.336 401.212 188.478 400.762 188.48 400.3L188.59 384.65C188.587 384.132 188.408 383.63 188.083 383.227C187.758 382.824 187.305 382.543 186.8 382.43L143.16 366.14C142.774 366.063 142.376 366.084 142 366.2Z" fill="white"/>
</mask>
<g mask="url(#mask1_308_350)">
<path d="M123.93 425.24C124.205 425.371 124.503 425.446 124.807 425.46C125.111 425.473 125.415 425.426 125.7 425.32L187 402.42C187.433 402.259 187.807 401.97 188.071 401.591C188.336 401.212 188.478 400.762 188.48 400.3L188.59 384.65C188.591 384.117 188.4 383.602 188.05 383.2L124.8 406.56L123.93 425.24Z" fill="#6366F1"/>
<path opacity="0.5" d="M123.93 425.24C124.205 425.371 124.503 425.446 124.807 425.46C125.111 425.473 125.415 425.426 125.7 425.32L187 402.42C187.433 402.259 187.807 401.97 188.071 401.591C188.336 401.212 188.478 400.762 188.48 400.3L188.59 384.65C188.591 384.117 188.4 383.602 188.05 383.2L124.8 406.56L123.93 425.24Z" fill="white"/>
<path d="M81.9299 387.11V403.79C81.9388 404.21 82.0641 404.619 82.2918 404.973C82.5196 405.326 82.8409 405.609 83.2199 405.79L124 425.25C124.272 425.381 124.568 425.456 124.87 425.47V406.56L81.9999 386.72C81.9612 386.847 81.9377 386.978 81.9299 387.11Z" fill="#6366F1"/>
</g>
<path d="M142 366.2L83.4999 385C83.0427 385.146 82.6441 385.435 82.3618 385.823C82.0795 386.212 81.9283 386.68 81.9299 387.16V403.84C81.9388 404.26 82.0641 404.669 82.2918 405.022C82.5196 405.376 82.8409 405.659 83.2199 405.84L124 425.25C124.275 425.381 124.573 425.456 124.877 425.47C125.181 425.483 125.485 425.436 125.77 425.33L187 402.42C187.433 402.259 187.807 401.97 188.071 401.591C188.336 401.212 188.478 400.762 188.48 400.3L188.59 384.65C188.587 384.132 188.408 383.63 188.083 383.227C187.758 382.824 187.305 382.543 186.8 382.43L143.16 366.14C142.774 366.063 142.376 366.084 142 366.2Z" stroke="#263238" stroke-width="1.193" stroke-linecap="round" stroke-linejoin="round"/>
<path d="M222.35 335.52C222.35 335.52 230.05 339.2 234.08 346.58C238.11 353.96 235.08 368.02 232.73 372.38C230.38 376.74 214.64 378.75 209.28 378.75C203.92 378.75 202.91 378.08 202.91 378.08C202.91 378.08 185.82 381.43 175.09 383.44C164.36 385.45 167.09 360.32 170.4 348.92C173.71 337.52 192.52 331.83 200.23 331.83C207.94 331.83 222.35 335.52 222.35 335.52Z" fill="#263238" stroke="#263238" stroke-width="1.193" stroke-linecap="round" stroke-linejoin="round"/>
<path d="M202.91 378.08C202.91 378.08 217.32 373.08 223.35 360.32" stroke="white" stroke-width="1.193" stroke-linecap="round" stroke-linejoin="round"/>
<path d="M216.65 370.7C221.294 368.753 225.507 365.909 229.05 362.33" stroke="white" stroke-width="1.193" stroke-linecap="round" stroke-linejoin="round"/>
<path d="M182.8 346.58C182.8 346.58 186.8 367.69 184.8 376.4C182.8 385.11 171.06 386.46 168.38 385.45C165.7 384.44 167.04 363.67 167.04 353.28C167.04 342.89 177.44 343.56 182.8 346.58Z" fill="#757575" stroke="#263238" stroke-width="1.193" stroke-linecap="round" stroke-linejoin="round"/>
<path d="M97.3399 290.27C97.3399 290.27 94.9999 304 96.6699 310.72C97.5207 314.463 99.1156 317.996 101.36 321.11C101.36 321.11 92.9799 333.51 94.6599 343.89C96.3399 354.27 100.66 355.62 100.66 355.62C100.66 355.62 96.9799 374.73 103.66 381.43C110.34 388.13 125.11 395.5 141.53 392.49C157.95 389.48 169.01 388.8 172.36 383.1C175.71 377.4 173.7 352.27 173.7 352.27C173.7 352.27 173.03 324.46 172.36 307.36C171.69 290.26 169.36 276.53 161.3 269.83C153.24 263.13 117.73 273.52 107.01 280.55C96.2899 287.58 97.3399 290.27 97.3399 290.27Z" fill="#6366F1"/>
<mask id="mask2_308_350" style="mask-type:luminance" maskUnits="userSpaceOnUse" x="94" y="267" width="81" height="127">
<path d="M97.3399 290.27C97.3399 290.27 94.9999 304 96.6699 310.72C97.5207 314.463 99.1156 317.996 101.36 321.11C101.36 321.11 92.9799 333.51 94.6599 343.89C96.3399 354.27 100.66 355.62 100.66 355.62C100.66 355.62 96.9799 374.73 103.66 381.43C110.34 388.13 125.11 395.5 141.53 392.49C157.95 389.48 169.01 388.8 172.36 383.1C175.71 377.4 173.7 352.27 173.7 352.27C173.7 352.27 173.03 324.46 172.36 307.36C171.69 290.26 169.36 276.53 161.3 269.83C153.24 263.13 117.73 273.52 107.01 280.55C96.2899 287.58 97.3399 290.27 97.3399 290.27Z" fill="white"/>
</mask>
<g mask="url(#mask2_308_350)">
<path opacity="0.3" d="M99.7298 290.27C99.7298 290.27 97.3798 304.01 99.0598 310.72C99.9056 314.464 101.501 317.999 103.75 321.11C103.75 321.11 95.3698 333.51 97.0498 343.89C98.7298 354.27 103.05 355.62 103.05 355.62C103.05 355.62 99.3598 374.73 106.05 381.43C112.74 388.13 127.54 395.5 144 392.49C160.46 389.48 171.49 388.8 174.84 383.1C178.19 377.4 176.18 352.27 176.18 352.27C176.18 352.27 175.51 324.46 174.84 307.36C174.17 290.26 171.84 276.53 163.78 269.83C155.72 263.13 120.21 273.52 109.49 280.55C98.7698 287.58 99.7298 290.27 99.7298 290.27Z" fill="black"/>
</g>
<path d="M97.3399 290.27C97.3399 290.27 94.9999 304 96.6699 310.72C97.5207 314.463 99.1156 317.996 101.36 321.11C101.36 321.11 92.9799 333.51 94.6599 343.89C96.3399 354.27 100.66 355.62 100.66 355.62C100.66 355.62 96.9799 374.73 103.66 381.43C110.34 388.13 125.11 395.5 141.53 392.49C157.95 389.48 169.01 388.8 172.36 383.1C175.71 377.4 173.7 352.27 173.7 352.27C173.7 352.27 173.03 324.46 172.36 307.36C171.69 290.26 169.36 276.53 161.3 269.83C153.24 263.13 117.73 273.52 107.01 280.55C96.2899 287.58 97.3399 290.27 97.3399 290.27Z" stroke="#263238" stroke-width="1.193" stroke-linecap="round" stroke-linejoin="round"/>
<path d="M101.36 321.11C106.548 324.649 112.484 326.942 118.704 327.809C124.925 328.676 131.261 328.095 137.22 326.11" stroke="#263238" stroke-width="1.193" stroke-linecap="round" stroke-linejoin="round"/>
<path d="M100.69 355.62C100.69 355.62 117.78 372.38 145.94 356.29" stroke="#263238" stroke-width="1.193" stroke-linecap="round" stroke-linejoin="round"/>
<path d="M167.38 273.85C167.38 273.85 161.02 264.13 152.3 258.77C143.58 253.41 121.14 249.39 112.09 247.71C103.04 246.03 93.32 246.71 90.64 256.71C87.96 266.71 88.29 283.52 90.97 290.89C93.65 298.26 104.71 302.62 113.43 297.6C122.15 292.58 146.27 273.13 154.65 272.13C163.03 271.13 166.71 277.54 167.38 273.85Z" fill="#757575"/>
<mask id="mask3_308_350" style="mask-type:luminance" maskUnits="userSpaceOnUse" x="88" y="247" width="80" height="53">
<path d="M167.38 273.85C167.38 273.85 161.02 264.13 152.3 258.77C143.58 253.41 121.14 249.39 112.09 247.71C103.04 246.03 93.32 246.71 90.64 256.71C87.96 266.71 88.29 283.52 90.97 290.89C93.65 298.26 104.71 302.62 113.43 297.6C122.15 292.58 146.27 273.13 154.65 272.13C163.03 271.13 166.71 277.54 167.38 273.85Z" fill="white"/>
</mask>
<g mask="url(#mask3_308_350)">
<path opacity="0.3" d="M148.79 272C153.9 269.87 141.12 273.7 140.27 272.42C139.42 271.14 149.21 264.76 151.34 263.91C153.47 263.06 138.99 266.04 139.42 263.91C139.85 261.78 153.47 261.35 144.1 259.22C134.73 257.09 104.1 251.55 98.1 249.42C97.641 249.271 97.2064 249.055 96.81 248.78C95.2584 249.58 93.9016 250.712 92.8355 252.094C91.7693 253.476 91.0198 255.076 90.64 256.78C87.96 266.83 88.29 283.59 90.97 290.96C93.31 297.38 101.97 301.51 109.97 299.16C113.66 296.16 117.07 292.22 122.84 288.59C134.31 281.33 143.68 274.09 148.79 272Z" fill="black"/>
</g>
<path d="M167.38 273.85C167.38 273.85 161.02 264.13 152.3 258.77C143.58 253.41 121.14 249.39 112.09 247.71C103.04 246.03 93.32 246.71 90.64 256.71C87.96 266.71 88.29 283.52 90.97 290.89C93.65 298.26 104.71 302.62 113.43 297.6C122.15 292.58 146.27 273.13 154.65 272.13C163.03 271.13 166.71 277.54 167.38 273.85Z" stroke="#263238" stroke-width="1.193" stroke-linecap="round" stroke-linejoin="round"/>
<path d="M203.58 319.43C203.58 319.43 211.29 320.43 216.31 322.43C221.33 324.43 224.69 336.84 222.68 338.51C220.67 340.18 216.68 338.18 216.68 338.18C213.528 339.289 210.271 340.073 206.96 340.52C202.91 340.88 198.55 321.78 203.58 319.43Z" fill="#6366F1" stroke="#263238" stroke-width="1.193" stroke-linecap="round" stroke-linejoin="round"/>
<path d="M178.11 318.42C178.11 318.42 179.45 318.42 186.82 315.07C194.19 311.72 200.23 311.72 204.92 319.07C209.61 326.42 211.62 335.5 208.92 340.86C206.22 346.22 196.19 349.91 190.82 349.91C185.45 349.91 184.82 342.91 184.82 342.91C184.82 342.91 184.15 331.85 180.82 327.83C177.49 323.81 176.77 319.43 178.11 318.42Z" fill="#757575" stroke="#263238" stroke-width="1.193" stroke-linecap="round" stroke-linejoin="round"/>
<path d="M153.31 273.85C160.68 271.17 170.07 272.85 173.42 282.23C176.77 291.61 179.78 319.09 179.78 319.09C179.78 319.09 188.16 320.09 191.51 323.79C194.86 327.49 196.51 336.86 195.87 341.55C195.23 346.24 183.47 354.95 170.07 355.29C156.67 355.63 146.94 349.29 142.25 332.16C137.56 315.03 139.42 289 139.42 289C139.42 289 141.12 281.33 143.68 279.62" fill="#6366F1"/>
<mask id="mask4_308_350" style="mask-type:luminance" maskUnits="userSpaceOnUse" x="139" y="272" width="58" height="84">
<path d="M153.31 273.85C160.68 271.17 170.07 272.85 173.42 282.23C176.77 291.61 179.78 319.09 179.78 319.09C179.78 319.09 188.16 320.09 191.51 323.79C194.86 327.49 196.51 336.86 195.87 341.55C195.23 346.24 183.47 354.95 170.07 355.29C156.67 355.63 146.94 349.29 142.25 332.16C137.56 315.03 139.42 289 139.42 289C139.42 289 141.12 281.33 143.68 279.62" fill="white"/>
</mask>
<g mask="url(#mask4_308_350)">
<path opacity="0.3" d="M195.87 341.55C196.54 336.86 194.87 327.47 191.51 323.79C191.38 323.64 191.22 323.5 191.08 323.36C191.481 326.372 191.722 329.403 191.8 332.44C192.47 352.11 164.98 348.82 159.44 334.57C156.44 326.9 155.6 293.25 146.66 290.7C141.5 289.23 139.74 293.27 139.18 296.96C139 306.61 139.32 321.48 142.25 332.16C146.94 349.26 156.66 355.62 170.07 355.29C183.48 354.96 195.2 346.24 195.87 341.55Z" fill="black"/>
</g>
<path d="M153.31 273.85C160.68 271.17 170.07 272.85 173.42 282.23C176.77 291.61 179.78 319.09 179.78 319.09C179.78 319.09 188.16 320.09 191.51 323.79C194.86 327.49 196.51 336.86 195.87 341.55C195.23 346.24 183.47 354.95 170.07 355.29C156.67 355.63 146.94 349.29 142.25 332.16C137.56 315.03 139.42 289 139.42 289C139.42 289 141.12 281.33 143.68 279.62" stroke="#263238" stroke-width="1.193" stroke-linecap="round" stroke-linejoin="round"/>
<path d="M179.78 319.09C179.78 319.09 182.4 331.3 168.94 338" stroke="#263238" stroke-width="1.193" stroke-linecap="round" stroke-linejoin="round"/>
<path d="M302 325.13L315.61 293H323.76V325.13H327.29V331.92H323.76V340.55H316.42V331.92H302V325.13ZM316.4 325.13V307.27L308.86 325.13H316.4Z" fill="#263238"/>
<path d="M330.08 304.41C330.08 296.81 334.08 292.41 341.42 292.41C348.76 292.41 352.76 296.76 352.76 304.41V329.13C352.76 336.74 348.76 341.13 341.42 341.13C334.08 341.13 330.08 336.78 330.08 329.13V304.41ZM337.55 329.61C337.55 333.01 339.04 334.3 341.42 334.3C343.8 334.3 345.29 333.01 345.29 329.61V303.94C345.29 300.54 343.79 299.25 341.42 299.25C339.05 299.25 337.55 300.54 337.55 303.94V329.61Z" fill="#263238"/>
<path d="M355.82 325.13L369.4 293H377.55V325.13H381.08V331.92H377.55V340.55H370.21V331.92H355.82V325.13ZM370.21 325.13V307.27L362.68 325.13H370.21Z" fill="#263238"/>
<path d="M118.288 118.112C117.253 118.112 116.309 117.872 115.456 117.392C114.603 116.901 113.925 116.224 113.424 115.36C112.933 114.485 112.688 113.504 112.688 112.416C112.688 111.328 112.933 110.352 113.424 109.488C113.925 108.613 114.603 107.936 115.456 107.456C116.309 106.965 117.253 106.72 118.288 106.72C119.333 106.72 120.283 106.965 121.136 107.456C121.989 107.936 122.661 108.608 123.152 109.472C123.643 110.336 123.888 111.317 123.888 112.416C123.888 113.515 123.643 114.496 123.152 115.36C122.661 116.224 121.989 116.901 121.136 117.392C120.283 117.872 119.333 118.112 118.288 118.112ZM118.288 116.848C119.067 116.848 119.765 116.667 120.384 116.304C121.013 115.941 121.504 115.424 121.856 114.752C122.219 114.08 122.4 113.301 122.4 112.416C122.4 111.52 122.219 110.741 121.856 110.08C121.504 109.408 121.019 108.891 120.4 108.528C119.781 108.165 119.077 107.984 118.288 107.984C117.499 107.984 116.795 108.165 116.176 108.528C115.557 108.891 115.067 109.408 114.704 110.08C114.352 110.741 114.176 111.52 114.176 112.416C114.176 113.301 114.352 114.08 114.704 114.752C115.067 115.424 115.557 115.941 116.176 116.304C116.805 116.667 117.509 116.848 118.288 116.848Z" fill="#263238"/>
<path d="M129.634 118.144C128.813 118.144 128.066 117.957 127.394 117.584C126.733 117.211 126.21 116.683 125.826 116C125.453 115.307 125.266 114.507 125.266 113.6C125.266 112.704 125.458 111.915 125.842 111.232C126.237 110.539 126.77 110.011 127.442 109.648C128.114 109.275 128.866 109.088 129.698 109.088C130.53 109.088 131.282 109.275 131.954 109.648C132.626 110.011 133.154 110.533 133.538 111.216C133.933 111.899 134.13 112.693 134.13 113.6C134.13 114.507 133.927 115.307 133.522 116C133.127 116.683 132.589 117.211 131.906 117.584C131.223 117.957 130.466 118.144 129.634 118.144ZM129.634 116.864C130.157 116.864 130.647 116.741 131.106 116.496C131.565 116.251 131.933 115.883 132.21 115.392C132.498 114.901 132.642 114.304 132.642 113.6C132.642 112.896 132.503 112.299 132.226 111.808C131.949 111.317 131.586 110.955 131.138 110.72C130.69 110.475 130.205 110.352 129.682 110.352C129.149 110.352 128.658 110.475 128.21 110.72C127.773 110.955 127.421 111.317 127.154 111.808C126.887 112.299 126.754 112.896 126.754 113.6C126.754 114.315 126.882 114.917 127.138 115.408C127.405 115.899 127.757 116.267 128.194 116.512C128.631 116.747 129.111 116.864 129.634 116.864Z" fill="#263238"/>
<path d="M137.5 110.848C137.788 110.347 138.215 109.931 138.78 109.6C139.356 109.259 140.023 109.088 140.78 109.088C141.559 109.088 142.263 109.275 142.892 109.648C143.532 110.021 144.034 110.549 144.396 111.232C144.759 111.904 144.94 112.688 144.94 113.584C144.94 114.469 144.759 115.259 144.396 115.952C144.034 116.645 143.532 117.184 142.892 117.568C142.263 117.952 141.559 118.144 140.78 118.144C140.034 118.144 139.372 117.979 138.796 117.648C138.231 117.307 137.799 116.885 137.5 116.384V122.16H136.044V109.232H137.5V110.848ZM143.452 113.584C143.452 112.923 143.319 112.347 143.052 111.856C142.786 111.365 142.423 110.992 141.964 110.736C141.516 110.48 141.02 110.352 140.476 110.352C139.943 110.352 139.447 110.485 138.988 110.752C138.54 111.008 138.178 111.387 137.9 111.888C137.634 112.379 137.5 112.949 137.5 113.6C137.5 114.261 137.634 114.843 137.9 115.344C138.178 115.835 138.54 116.213 138.988 116.48C139.447 116.736 139.943 116.864 140.476 116.864C141.02 116.864 141.516 116.736 141.964 116.48C142.423 116.213 142.786 115.835 143.052 115.344C143.319 114.843 143.452 114.256 143.452 113.584Z" fill="#263238"/>
<path d="M149.961 118.144C149.289 118.144 148.686 118.032 148.153 117.808C147.62 117.573 147.198 117.253 146.889 116.848C146.58 116.432 146.409 115.957 146.377 115.424H147.881C147.924 115.861 148.126 116.219 148.489 116.496C148.862 116.773 149.348 116.912 149.945 116.912C150.5 116.912 150.937 116.789 151.257 116.544C151.577 116.299 151.737 115.989 151.737 115.616C151.737 115.232 151.566 114.949 151.225 114.768C150.884 114.576 150.356 114.389 149.641 114.208C148.99 114.037 148.457 113.867 148.041 113.696C147.636 113.515 147.284 113.253 146.985 112.912C146.697 112.56 146.553 112.101 146.553 111.536C146.553 111.088 146.686 110.677 146.953 110.304C147.22 109.931 147.598 109.637 148.089 109.424C148.58 109.2 149.14 109.088 149.769 109.088C150.74 109.088 151.524 109.333 152.121 109.824C152.718 110.315 153.038 110.987 153.081 111.84H151.625C151.593 111.381 151.406 111.013 151.065 110.736C150.734 110.459 150.286 110.32 149.721 110.32C149.198 110.32 148.782 110.432 148.473 110.656C148.164 110.88 148.009 111.173 148.009 111.536C148.009 111.824 148.1 112.064 148.281 112.256C148.473 112.437 148.708 112.587 148.985 112.704C149.273 112.811 149.668 112.933 150.169 113.072C150.798 113.243 151.31 113.413 151.705 113.584C152.1 113.744 152.436 113.989 152.713 114.32C153.001 114.651 153.15 115.083 153.161 115.616C153.161 116.096 153.028 116.528 152.761 116.912C152.494 117.296 152.116 117.6 151.625 117.824C151.145 118.037 150.59 118.144 149.961 118.144Z" fill="#263238"/>
<path d="M155.68 118.096C155.403 118.096 155.168 118 154.976 117.808C154.784 117.616 154.688 117.381 154.688 117.104C154.688 116.827 154.784 116.592 154.976 116.4C155.168 116.208 155.403 116.112 155.68 116.112C155.947 116.112 156.171 116.208 156.352 116.4C156.544 116.592 156.64 116.827 156.64 117.104C156.64 117.381 156.544 117.616 156.352 117.808C156.171 118 155.947 118.096 155.68 118.096Z" fill="#263238"/>
<path d="M159.04 118.096C158.762 118.096 158.528 118 158.336 117.808C158.144 117.616 158.048 117.381 158.048 117.104C158.048 116.827 158.144 116.592 158.336 116.4C158.528 116.208 158.762 116.112 159.04 116.112C159.306 116.112 159.53 116.208 159.712 116.4C159.904 116.592 160 116.827 160 117.104C160 117.381 159.904 117.616 159.712 117.808C159.53 118 159.306 118.096 159.04 118.096Z" fill="#263238"/>
<path d="M162.399 118.096C162.122 118.096 161.887 118 161.695 117.808C161.503 117.616 161.407 117.381 161.407 117.104C161.407 116.827 161.503 116.592 161.695 116.4C161.887 116.208 162.122 116.112 162.399 116.112C162.666 116.112 162.89 116.208 163.071 116.4C163.263 116.592 163.359 116.827 163.359 117.104C163.359 117.381 163.263 117.616 163.071 117.808C162.89 118 162.666 118.096 162.399 118.096Z" fill="#263238"/>
<path d="M120.688 134.112C120.688 135.04 120.368 135.813 119.728 136.432C119.099 137.04 118.133 137.344 116.832 137.344H114.688V142H113.232V130.848H116.832C118.091 130.848 119.045 131.152 119.696 131.76C120.357 132.368 120.688 133.152 120.688 134.112ZM116.832 136.144C117.643 136.144 118.24 135.968 118.624 135.616C119.008 135.264 119.2 134.763 119.2 134.112C119.2 132.736 118.411 132.048 116.832 132.048H114.688V136.144H116.832Z" fill="#263238"/>
<path d="M121.954 137.584C121.954 136.688 122.135 135.904 122.498 135.232C122.86 134.549 123.356 134.021 123.986 133.648C124.626 133.275 125.335 133.088 126.114 133.088C126.882 133.088 127.548 133.253 128.114 133.584C128.679 133.915 129.1 134.331 129.378 134.832V133.232H130.85V142H129.378V140.368C129.09 140.88 128.658 141.307 128.082 141.648C127.516 141.979 126.855 142.144 126.098 142.144C125.319 142.144 124.615 141.952 123.986 141.568C123.356 141.184 122.86 140.645 122.498 139.952C122.135 139.259 121.954 138.469 121.954 137.584ZM129.378 137.6C129.378 136.939 129.244 136.363 128.978 135.872C128.711 135.381 128.348 135.008 127.89 134.752C127.442 134.485 126.946 134.352 126.402 134.352C125.858 134.352 125.362 134.48 124.914 134.736C124.466 134.992 124.108 135.365 123.842 135.856C123.575 136.347 123.442 136.923 123.442 137.584C123.442 138.256 123.575 138.843 123.842 139.344C124.108 139.835 124.466 140.213 124.914 140.48C125.362 140.736 125.858 140.864 126.402 140.864C126.946 140.864 127.442 140.736 127.89 140.48C128.348 140.213 128.711 139.835 128.978 139.344C129.244 138.843 129.378 138.261 129.378 137.6ZM128.242 130.752L124.834 132.576V131.488L128.242 129.488V130.752Z" fill="#263238"/>
<path d="M136.926 133.088C137.683 133.088 138.345 133.253 138.91 133.584C139.486 133.915 139.913 134.331 140.19 134.832V133.232H141.662V142.192C141.662 142.992 141.491 143.701 141.15 144.32C140.809 144.949 140.318 145.44 139.678 145.792C139.049 146.144 138.313 146.32 137.47 146.32C136.318 146.32 135.358 146.048 134.59 145.504C133.822 144.96 133.369 144.219 133.23 143.28H134.67C134.83 143.813 135.161 144.24 135.662 144.56C136.163 144.891 136.766 145.056 137.47 145.056C138.27 145.056 138.921 144.805 139.422 144.304C139.934 143.803 140.19 143.099 140.19 142.192V140.352C139.902 140.864 139.475 141.291 138.91 141.632C138.345 141.973 137.683 142.144 136.926 142.144C136.147 142.144 135.438 141.952 134.798 141.568C134.169 141.184 133.673 140.645 133.31 139.952C132.947 139.259 132.766 138.469 132.766 137.584C132.766 136.688 132.947 135.904 133.31 135.232C133.673 134.549 134.169 134.021 134.798 133.648C135.438 133.275 136.147 133.088 136.926 133.088ZM140.19 137.6C140.19 136.939 140.057 136.363 139.79 135.872C139.523 135.381 139.161 135.008 138.702 134.752C138.254 134.485 137.758 134.352 137.214 134.352C136.67 134.352 136.174 134.48 135.726 134.736C135.278 134.992 134.921 135.365 134.654 135.856C134.387 136.347 134.254 136.923 134.254 137.584C134.254 138.256 134.387 138.843 134.654 139.344C134.921 139.835 135.278 140.213 135.726 140.48C136.174 140.736 136.67 140.864 137.214 140.864C137.758 140.864 138.254 140.736 138.702 140.48C139.161 140.213 139.523 139.835 139.79 139.344C140.057 138.843 140.19 138.261 140.19 137.6Z" fill="#263238"/>
<path d="M144.875 131.808C144.597 131.808 144.363 131.712 144.171 131.52C143.979 131.328 143.883 131.093 143.883 130.816C143.883 130.539 143.979 130.304 144.171 130.112C144.363 129.92 144.597 129.824 144.875 129.824C145.141 129.824 145.365 129.92 145.547 130.112C145.739 130.304 145.835 130.539 145.835 130.816C145.835 131.093 145.739 131.328 145.547 131.52C145.365 131.712 145.141 131.808 144.875 131.808ZM145.579 133.232V142H144.123V133.232H145.579Z" fill="#263238"/>
<path d="M152.332 133.072C153.399 133.072 154.263 133.397 154.924 134.048C155.585 134.688 155.916 135.616 155.916 136.832V142H154.476V137.04C154.476 136.165 154.257 135.499 153.82 135.04C153.383 134.571 152.785 134.336 152.028 134.336C151.26 134.336 150.647 134.576 150.188 135.056C149.74 135.536 149.516 136.235 149.516 137.152V142H148.06V133.232H149.516V134.48C149.804 134.032 150.193 133.685 150.684 133.44C151.185 133.195 151.735 133.072 152.332 133.072Z" fill="#263238"/>
<path d="M157.75 137.584C157.75 136.688 157.932 135.904 158.294 135.232C158.657 134.549 159.153 134.021 159.782 133.648C160.422 133.275 161.132 133.088 161.91 133.088C162.678 133.088 163.345 133.253 163.91 133.584C164.476 133.915 164.897 134.331 165.174 134.832V133.232H166.646V142H165.174V140.368C164.886 140.88 164.454 141.307 163.878 141.648C163.313 141.979 162.652 142.144 161.894 142.144C161.116 142.144 160.412 141.952 159.782 141.568C159.153 141.184 158.657 140.645 158.294 139.952C157.932 139.259 157.75 138.469 157.75 137.584ZM165.174 137.6C165.174 136.939 165.041 136.363 164.774 135.872C164.508 135.381 164.145 135.008 163.686 134.752C163.238 134.485 162.742 134.352 162.198 134.352C161.654 134.352 161.158 134.48 160.71 134.736C160.262 134.992 159.905 135.365 159.638 135.856C159.372 136.347 159.238 136.923 159.238 137.584C159.238 138.256 159.372 138.843 159.638 139.344C159.905 139.835 160.262 140.213 160.71 140.48C161.158 140.736 161.654 140.864 162.198 140.864C162.742 140.864 163.238 140.736 163.686 140.48C164.145 140.213 164.508 139.835 164.774 139.344C165.041 138.843 165.174 138.261 165.174 137.6Z" fill="#263238"/>
<path d="M177.645 133.072C178.711 133.072 179.575 133.397 180.237 134.048C180.898 134.688 181.229 135.616 181.229 136.832V142H179.789V137.04C179.789 136.165 179.57 135.499 179.133 135.04C178.695 134.571 178.098 134.336 177.341 134.336C176.573 134.336 175.959 134.576 175.501 135.056C175.053 135.536 174.829 136.235 174.829 137.152V142H173.373V133.232H174.829V134.48C175.117 134.032 175.506 133.685 175.997 133.44C176.498 133.195 177.047 133.072 177.645 133.072Z" fill="#263238"/>
<path d="M183.063 137.584C183.063 136.688 183.244 135.904 183.607 135.232C183.97 134.549 184.466 134.021 185.095 133.648C185.735 133.275 186.444 133.088 187.223 133.088C187.991 133.088 188.658 133.253 189.223 133.584C189.788 133.915 190.21 134.331 190.487 134.832V133.232H191.959V142H190.487V140.368C190.199 140.88 189.767 141.307 189.191 141.648C188.626 141.979 187.964 142.144 187.207 142.144C186.428 142.144 185.724 141.952 185.095 141.568C184.466 141.184 183.97 140.645 183.607 139.952C183.244 139.259 183.063 138.469 183.063 137.584ZM190.487 137.6C190.487 136.939 190.354 136.363 190.087 135.872C189.82 135.381 189.458 135.008 188.999 134.752C188.551 134.485 188.055 134.352 187.511 134.352C186.967 134.352 186.471 134.48 186.023 134.736C185.575 134.992 185.218 135.365 184.951 135.856C184.684 136.347 184.551 136.923 184.551 137.584C184.551 138.256 184.684 138.843 184.951 139.344C185.218 139.835 185.575 140.213 186.023 140.48C186.471 140.736 186.967 140.864 187.511 140.864C188.055 140.864 188.551 140.736 188.999 140.48C189.458 140.213 189.82 139.835 190.087 139.344C190.354 138.843 190.487 138.261 190.487 137.6ZM185.447 132.288C185.522 131.744 185.698 131.328 185.975 131.04C186.263 130.752 186.62 130.608 187.047 130.608C187.25 130.608 187.42 130.645 187.559 130.72C187.708 130.784 187.884 130.88 188.087 131.008C188.236 131.115 188.37 131.2 188.487 131.264C188.604 131.317 188.732 131.344 188.871 131.344C189.052 131.344 189.207 131.285 189.335 131.168C189.463 131.051 189.543 130.88 189.575 130.656H190.407C190.343 131.189 190.167 131.6 189.879 131.888C189.591 132.176 189.234 132.32 188.807 132.32C188.604 132.32 188.423 132.288 188.263 132.224C188.114 132.149 187.943 132.043 187.751 131.904C187.58 131.797 187.442 131.717 187.335 131.664C187.239 131.611 187.122 131.584 186.983 131.584C186.802 131.584 186.647 131.643 186.519 131.76C186.402 131.877 186.327 132.053 186.295 132.288H185.447Z" fill="#263238"/>
<path d="M198.243 142.144C197.422 142.144 196.675 141.957 196.003 141.584C195.342 141.211 194.819 140.683 194.435 140C194.062 139.307 193.875 138.507 193.875 137.6C193.875 136.704 194.067 135.915 194.451 135.232C194.846 134.539 195.379 134.011 196.051 133.648C196.723 133.275 197.475 133.088 198.307 133.088C199.139 133.088 199.891 133.275 200.563 133.648C201.235 134.011 201.763 134.533 202.147 135.216C202.542 135.899 202.739 136.693 202.739 137.6C202.739 138.507 202.537 139.307 202.131 140C201.737 140.683 201.198 141.211 200.515 141.584C199.833 141.957 199.075 142.144 198.243 142.144ZM198.243 140.864C198.766 140.864 199.257 140.741 199.715 140.496C200.174 140.251 200.542 139.883 200.819 139.392C201.107 138.901 201.251 138.304 201.251 137.6C201.251 136.896 201.113 136.299 200.835 135.808C200.558 135.317 200.195 134.955 199.747 134.72C199.299 134.475 198.814 134.352 198.291 134.352C197.758 134.352 197.267 134.475 196.819 134.72C196.382 134.955 196.03 135.317 195.763 135.808C195.497 136.299 195.363 136.896 195.363 137.6C195.363 138.315 195.491 138.917 195.747 139.408C196.014 139.899 196.366 140.267 196.803 140.512C197.241 140.747 197.721 140.864 198.243 140.864Z" fill="#263238"/>
<path d="M216.919 137.28C216.919 137.557 216.903 137.851 216.871 138.16H209.863C209.917 139.024 210.21 139.701 210.743 140.192C211.287 140.672 211.943 140.912 212.711 140.912C213.341 140.912 213.863 140.768 214.279 140.48C214.706 140.181 215.005 139.787 215.175 139.296H216.743C216.509 140.139 216.039 140.827 215.335 141.36C214.631 141.883 213.757 142.144 212.711 142.144C211.879 142.144 211.133 141.957 210.471 141.584C209.821 141.211 209.309 140.683 208.935 140C208.562 139.307 208.375 138.507 208.375 137.6C208.375 136.693 208.557 135.899 208.919 135.216C209.282 134.533 209.789 134.011 210.439 133.648C211.101 133.275 211.858 133.088 212.711 133.088C213.543 133.088 214.279 133.269 214.919 133.632C215.559 133.995 216.05 134.496 216.391 135.136C216.743 135.765 216.919 136.48 216.919 137.28ZM215.415 136.976C215.415 136.421 215.293 135.947 215.047 135.552C214.802 135.147 214.466 134.843 214.039 134.64C213.623 134.427 213.159 134.32 212.647 134.32C211.911 134.32 211.282 134.555 210.759 135.024C210.247 135.493 209.954 136.144 209.879 136.976H215.415Z" fill="#263238"/>
<path d="M223.113 133.072C224.18 133.072 225.044 133.397 225.705 134.048C226.367 134.688 226.697 135.616 226.697 136.832V142H225.257V137.04C225.257 136.165 225.039 135.499 224.601 135.04C224.164 134.571 223.567 134.336 222.809 134.336C222.041 134.336 221.428 134.576 220.969 135.056C220.521 135.536 220.297 136.235 220.297 137.152V142H218.841V133.232H220.297V134.48C220.585 134.032 220.975 133.685 221.465 133.44C221.967 133.195 222.516 133.072 223.113 133.072Z" fill="#263238"/>
<path d="M228.532 137.6C228.532 136.693 228.713 135.904 229.076 135.232C229.438 134.549 229.94 134.021 230.58 133.648C231.23 133.275 231.972 133.088 232.804 133.088C233.881 133.088 234.766 133.349 235.46 133.872C236.164 134.395 236.628 135.12 236.852 136.048H235.284C235.134 135.515 234.841 135.093 234.404 134.784C233.977 134.475 233.444 134.32 232.804 134.32C231.972 134.32 231.3 134.608 230.788 135.184C230.276 135.749 230.02 136.555 230.02 137.6C230.02 138.656 230.276 139.472 230.788 140.048C231.3 140.624 231.972 140.912 232.804 140.912C233.444 140.912 233.977 140.763 234.404 140.464C234.83 140.165 235.124 139.739 235.284 139.184H236.852C236.617 140.08 236.148 140.8 235.444 141.344C234.74 141.877 233.86 142.144 232.804 142.144C231.972 142.144 231.23 141.957 230.58 141.584C229.94 141.211 229.438 140.683 229.076 140C228.713 139.317 228.532 138.517 228.532 137.6Z" fill="#263238"/>
<path d="M242.618 142.144C241.797 142.144 241.05 141.957 240.378 141.584C239.717 141.211 239.194 140.683 238.81 140C238.437 139.307 238.25 138.507 238.25 137.6C238.25 136.704 238.442 135.915 238.826 135.232C239.221 134.539 239.754 134.011 240.426 133.648C241.098 133.275 241.85 133.088 242.682 133.088C243.514 133.088 244.266 133.275 244.938 133.648C245.61 134.011 246.138 134.533 246.522 135.216C246.917 135.899 247.114 136.693 247.114 137.6C247.114 138.507 246.912 139.307 246.506 140C246.112 140.683 245.573 141.211 244.89 141.584C244.208 141.957 243.45 142.144 242.618 142.144ZM242.618 140.864C243.141 140.864 243.632 140.741 244.09 140.496C244.549 140.251 244.917 139.883 245.194 139.392C245.482 138.901 245.626 138.304 245.626 137.6C245.626 136.896 245.488 136.299 245.21 135.808C244.933 135.317 244.57 134.955 244.122 134.72C243.674 134.475 243.189 134.352 242.666 134.352C242.133 134.352 241.642 134.475 241.194 134.72C240.757 134.955 240.405 135.317 240.138 135.808C239.872 136.299 239.738 136.896 239.738 137.6C239.738 138.315 239.866 138.917 240.122 139.408C240.389 139.899 240.741 140.267 241.178 140.512C241.616 140.747 242.096 140.864 242.618 140.864Z" fill="#263238"/>
<path d="M253.301 133.072C254.368 133.072 255.232 133.397 255.893 134.048C256.554 134.688 256.885 135.616 256.885 136.832V142H255.445V137.04C255.445 136.165 255.226 135.499 254.789 135.04C254.352 134.571 253.754 134.336 252.997 134.336C252.229 134.336 251.616 134.576 251.157 135.056C250.709 135.536 250.485 136.235 250.485 137.152V142H249.029V133.232H250.485V134.48C250.773 134.032 251.162 133.685 251.653 133.44C252.154 133.195 252.704 133.072 253.301 133.072Z" fill="#263238"/>
<path d="M261.039 134.432V139.6C261.039 140.027 261.13 140.331 261.311 140.512C261.493 140.683 261.807 140.768 262.255 140.768H263.327V142H262.015C261.205 142 260.597 141.813 260.191 141.44C259.786 141.067 259.583 140.453 259.583 139.6V134.432H258.447V133.232H259.583V131.024H261.039V133.232H263.327V134.432H261.039Z" fill="#263238"/>
<path d="M266.547 134.656C266.803 134.155 267.166 133.765 267.635 133.488C268.115 133.211 268.697 133.072 269.379 133.072V134.576H268.995C267.363 134.576 266.547 135.461 266.547 137.232V142H265.091V133.232H266.547V134.656Z" fill="#263238"/>
<path d="M270.516 137.584C270.516 136.688 270.697 135.904 271.06 135.232C271.423 134.549 271.919 134.021 272.548 133.648C273.188 133.275 273.897 133.088 274.676 133.088C275.444 133.088 276.111 133.253 276.676 133.584C277.241 133.915 277.663 134.331 277.94 134.832V133.232H279.412V142H277.94V140.368C277.652 140.88 277.22 141.307 276.644 141.648C276.079 141.979 275.417 142.144 274.66 142.144C273.881 142.144 273.177 141.952 272.548 141.568C271.919 141.184 271.423 140.645 271.06 139.952C270.697 139.259 270.516 138.469 270.516 137.584ZM277.94 137.6C277.94 136.939 277.807 136.363 277.54 135.872C277.273 135.381 276.911 135.008 276.452 134.752C276.004 134.485 275.508 134.352 274.964 134.352C274.42 134.352 273.924 134.48 273.476 134.736C273.028 134.992 272.671 135.365 272.404 135.856C272.137 136.347 272.004 136.923 272.004 137.584C272.004 138.256 272.137 138.843 272.404 139.344C272.671 139.835 273.028 140.213 273.476 140.48C273.924 140.736 274.42 140.864 274.964 140.864C275.508 140.864 276.004 140.736 276.452 140.48C276.911 140.213 277.273 139.835 277.54 139.344C277.807 138.843 277.94 138.261 277.94 137.6Z" fill="#263238"/>
<path d="M281.329 137.584C281.329 136.688 281.51 135.904 281.873 135.232C282.235 134.549 282.731 134.021 283.361 133.648C284.001 133.275 284.715 133.088 285.505 133.088C286.187 133.088 286.822 133.248 287.409 133.568C287.995 133.877 288.443 134.288 288.753 134.8V130.16H290.225V142H288.753V140.352C288.465 140.875 288.038 141.307 287.473 141.648C286.907 141.979 286.246 142.144 285.489 142.144C284.71 142.144 284.001 141.952 283.361 141.568C282.731 141.184 282.235 140.645 281.873 139.952C281.51 139.259 281.329 138.469 281.329 137.584ZM288.753 137.6C288.753 136.939 288.619 136.363 288.353 135.872C288.086 135.381 287.723 135.008 287.265 134.752C286.817 134.485 286.321 134.352 285.777 134.352C285.233 134.352 284.737 134.48 284.289 134.736C283.841 134.992 283.483 135.365 283.217 135.856C282.95 136.347 282.817 136.923 282.817 137.584C282.817 138.256 282.95 138.843 283.217 139.344C283.483 139.835 283.841 140.213 284.289 140.48C284.737 140.736 285.233 140.864 285.777 140.864C286.321 140.864 286.817 140.736 287.265 140.48C287.723 140.213 288.086 139.835 288.353 139.344C288.619 138.843 288.753 138.261 288.753 137.6Z" fill="#263238"/>
<path d="M292.141 137.584C292.141 136.688 292.322 135.904 292.685 135.232C293.048 134.549 293.544 134.021 294.173 133.648C294.813 133.275 295.522 133.088 296.301 133.088C297.069 133.088 297.736 133.253 298.301 133.584C298.866 133.915 299.288 134.331 299.565 134.832V133.232H301.037V142H299.565V140.368C299.277 140.88 298.845 141.307 298.269 141.648C297.704 141.979 297.042 142.144 296.285 142.144C295.506 142.144 294.802 141.952 294.173 141.568C293.544 141.184 293.048 140.645 292.685 139.952C292.322 139.259 292.141 138.469 292.141 137.584ZM299.565 137.6C299.565 136.939 299.432 136.363 299.165 135.872C298.898 135.381 298.536 135.008 298.077 134.752C297.629 134.485 297.133 134.352 296.589 134.352C296.045 134.352 295.549 134.48 295.101 134.736C294.653 134.992 294.296 135.365 294.029 135.856C293.762 136.347 293.629 136.923 293.629 137.584C293.629 138.256 293.762 138.843 294.029 139.344C294.296 139.835 294.653 140.213 295.101 140.48C295.549 140.736 296.045 140.864 296.589 140.864C297.133 140.864 297.629 140.736 298.077 140.48C298.536 140.213 298.898 139.835 299.165 139.344C299.432 138.843 299.565 138.261 299.565 137.6Z" fill="#263238"/>
</svg>
