<svg width="1328" height="388" viewBox="0 0 1328 388" fill="none" xmlns="http://www.w3.org/2000/svg">
<path d="M1275.23 268.23C1261.59 275.04 1248.87 279.12 1235.28 280.39C1176.88 285.88 1125.06 239.74 1124.13 180.95C1123.72 155.34 1123.97 129.72 1124.06 104.1C1124.11 89.4 1135.17 77.94 1149.17 77.75C1163.54 77.55 1174.76 88.69 1175.06 103.8C1175.28 114.75 1175.09 125.71 1175.12 136.66C1175.15 151.66 1174.83 166.67 1175.33 181.65C1176.22 208.53 1198.3 229.56 1225.41 229.89C1252.23 230.22 1275.41 209.9 1276.5 183.33C1277.57 157.25 1276.94 131.1 1276.95 104.98C1276.95 96.4 1279.53 89.02 1286.33 83.56C1293.89 77.49 1302.42 75.97 1311.5 79.5C1320.56 83.02 1325.82 89.86 1327.46 99.42C1327.8 101.4 1327.84 103.45 1327.84 105.46C1327.86 155.01 1328.02 204.56 1327.81 254.1C1327.58 305.32 1292.68 347.03 1242.15 355.38C1208.36 360.96 1178.82 350.71 1154.2 326.98C1143.85 317.01 1144.05 301.83 1153.91 291.6C1163.74 281.4 1177.76 280.87 1188.77 290.61C1206.87 306.62 1226.91 310.53 1249.07 300.36C1260.42 295.15 1268.12 286.13 1273.11 274.78C1273.8 273.17 1274.2 271.42 1275.23 268.23Z" fill="currentColor"/>
<path d="M126.99 282.05C51.9799 280.48 -6.76011 216.49 0.75989 141.83C5.98989 89.9299 34.0299 52.99 82.7699 34.78C132.18 16.31 177.27 27.09 216.08 62.83C227.38 73.23 227.68 88.2099 217.62 98.8499C207.4 109.66 192.66 109.84 181.16 99.3099C149.58 70.3899 105.33 69.51 75.0899 98.15C52.5199 119.52 45.4999 146.3 54.4999 175.88C63.4499 205.28 84.2099 223.2 114.55 228.66C139.3 233.12 161.19 226.11 179.83 209.12C189.9 199.94 199.72 197.9 209.81 202.73C226.43 210.68 229.78 230.64 216.51 244.03C201.13 259.55 182.8 270.46 161.69 275.96C150.37 278.92 138.57 280.08 126.99 282.05Z" fill="currentColor"/>
<path d="M618.55 303.51C633.33 310.87 637.27 330.2 626.51 342.73C600.48 373.06 560.87 390.89 517.68 386.53C481.02 382.82 451.84 367.76 431.45 342.08C421.42 329.45 425.59 310.78 440.03 303.59L440.87 303.17C451.37 297.94 463.92 300.75 471.62 309.6C472.39 310.48 473.18 311.35 473.99 312.2C495.34 334.76 522.14 341.79 551.73 332.8C566.76 328.22 578.79 320.55 587.68 310.08C595.33 301.08 607.99 298.25 618.55 303.51Z" fill="currentColor"/>
<path d="M1035.65 77.7199C1037.41 77.7199 1039.21 77.7199 1041.01 77.7199C1055.67 77.7199 1070.32 77.6499 1084.98 77.7499C1100.01 77.8499 1111.56 89.0499 1111.43 103.24C1111.3 117.32 1099.99 128.32 1085.17 128.46C1070.52 128.61 1055.86 128.5 1041.2 128.5C1039.38 128.5 1037.57 128.5 1035.01 128.5C1035.01 130.98 1035.01 132.93 1035.01 134.89C1035.01 174.65 1035.04 214.4 1034.99 254.16C1034.98 265.81 1028.62 275.34 1018.63 279.11C1001.87 285.43 984.269 273.27 984.209 255C984.069 217.43 984.159 179.87 984.159 142.3C984.159 121.58 984.119 100.86 984.169 80.1399C984.289 34.1399 1017.19 1.29996 1063.27 1.14996C1070.68 1.12996 1078.1 1.03993 1085.51 1.17993C1100.19 1.46993 1111.6 12.7899 1111.44 26.7399C1111.28 40.8399 1099.92 51.7399 1085.15 51.8799C1076.9 51.9599 1068.64 51.73 1060.39 51.96C1046.28 52.34 1034.77 64.1599 1035.65 77.7199Z" fill="currentColor"/>
<path d="M574.039 230.68C569.099 229.83 563.969 230.02 558.939 229.97C541.659 229.81 531.159 219.51 531.119 202.35C531.049 179.6 531.099 156.86 531.119 134.11C531.119 132.35 531.349 130.59 531.479 128.48V128.18C542.679 128.2 553.519 128.29 564.319 128.13C577.199 127.95 587.589 119.14 589.679 106.99C592.239 91.9099 580.729 77.8399 565.189 77.4899C554.039 77.2499 542.829 77.3899 530.959 77.4299C530.969 68.0599 531.409 59.3899 530.869 50.7999C529.949 36.3599 518.189 25.8599 504.369 26.4499C490.939 27.0199 480.069 38.4899 480.049 52.6099C480.029 60.8699 480.019 69.14 480.009 77.4C469.029 77.37 458.399 77.3 447.799 77.46C434.919 77.64 424.529 86.4499 422.439 98.5999C419.879 113.68 431.389 127.75 446.929 128.1C457.699 128.34 468.529 128.21 479.949 128.16C479.939 153.69 479.969 179.21 480.099 204.74C480.219 226.48 488.409 245.08 504.269 260.1C523.769 278.57 547.539 283.12 573.149 280.37C585.389 279.04 594.389 267.94 594.659 255.88C594.879 243.89 586.119 232.81 574.039 230.68Z" fill="currentColor"/>
<path d="M818.749 140.71C818.749 103.13 818.709 65.56 818.769 27.98C818.799 12.46 829.209 1.16004 843.509 0.830038C856.379 0.530038 867.419 9.85001 869.249 22.61C869.509 24.44 869.599 26.3 869.599 28.15C869.619 103.3 869.639 178.45 869.589 253.6C869.579 266.09 863.279 275.45 852.739 279.24C837.489 284.72 821.049 274.62 819.039 258.47C818.729 255.97 818.759 253.43 818.759 250.9C818.749 214.17 818.749 177.44 818.749 140.71Z" fill="currentColor"/>
<path d="M952.219 179.01C952.219 204.45 952.459 229.89 952.139 255.33C951.889 275.48 930.719 287.41 913.919 277.11C906.069 272.3 901.499 265.14 901.479 255.83C901.369 204.78 901.329 153.74 901.489 102.69C901.529 88.79 913.129 77.77 926.859 77.76C940.699 77.75 951.979 88.52 952.119 102.7C952.379 128.14 952.189 153.58 952.189 179.02C952.209 179.01 952.219 179.01 952.219 179.01Z" fill="currentColor"/>
<path d="M926.689 64.5601C910.859 64.4501 898.199 51.6101 898.299 35.7701C898.399 20.0601 911.429 7.17005 927.089 7.30005C942.659 7.43005 955.729 20.68 955.569 36.17C955.409 51.9 942.419 64.6701 926.689 64.5601Z" fill="currentColor"/>
<path d="M423.889 229C436.559 236.22 442.159 246.69 439.859 260.71C438.069 271.63 428.7 280.8 417.93 283.02C405.47 285.59 395.099 280.68 385.629 267.75C330.409 298.14 274.149 270.91 250.759 234.81C224.929 194.94 229.509 143.53 262.809 108.16C293.759 75.2899 345.829 67.4999 384.849 89.9099C409.289 103.95 425.789 124.42 433.489 151.54C441.159 178.52 437.159 204.37 423.889 229ZM335.83 128.08C307.5 127.99 284.879 150.59 284.969 178.91C285.059 207.09 307.449 229.75 335.349 229.9C363.679 230.05 386.549 207.14 386.489 178.69C386.439 150.6 363.99 128.17 335.83 128.08Z" fill="currentColor"/>
<path d="M778.06 229C790.73 236.22 796.33 246.69 794.03 260.71C792.24 271.63 782.87 280.8 772.1 283.02C759.64 285.59 749.27 280.68 739.8 267.75C684.58 298.14 628.32 270.91 604.93 234.81C579.1 194.94 583.68 143.53 616.98 108.16C647.93 75.2899 700 67.4999 739.02 89.9099C763.46 103.95 779.96 124.42 787.66 151.54C795.34 178.52 791.33 204.37 778.06 229ZM690.01 128.08C661.68 127.99 639.06 150.59 639.15 178.91C639.24 207.09 661.63 229.75 689.53 229.9C717.86 230.05 740.73 207.14 740.67 178.69C740.61 150.6 718.16 128.17 690.01 128.08Z" fill="currentColor"/>
</svg>
