<svg width="500" height="500" viewBox="0 0 500 500" fill="none" xmlns="http://www.w3.org/2000/svg">
<rect width="500" height="500" fill="#F3F4F6"/>
<path d="M227.023 186.25C227.023 190.825 225.206 195.213 221.971 198.448C218.736 201.683 214.348 203.5 209.773 203.5C205.198 203.5 200.81 201.683 197.575 198.448C194.34 195.213 192.523 190.825 192.523 186.25C192.523 181.675 194.34 177.287 197.575 174.052C200.81 170.817 205.198 169 209.773 169C214.348 169 218.736 170.817 221.971 174.052C225.206 177.287 227.023 181.675 227.023 186.25Z" fill="#9CA3AF" fill-opacity="0.6"/>
<path d="M175.25 146C170.675 146 166.287 147.817 163.052 151.052C159.817 154.287 158 158.675 158 163.25V266.75C158 271.325 159.817 275.713 163.052 278.948C166.287 282.183 170.675 284 175.25 284H324.75C329.325 284 333.713 282.183 336.948 278.948C340.183 275.713 342 271.325 342 266.75V163.25C342 158.675 340.183 154.287 336.948 151.052C333.713 147.817 329.325 146 324.75 146H175.25ZM324.75 157.5C326.275 157.5 327.738 158.106 328.816 159.184C329.894 160.262 330.5 161.725 330.5 163.25V232.25L287.088 209.859C286.009 209.319 284.788 209.132 283.597 209.324C282.406 209.516 281.306 210.077 280.452 210.929L237.787 253.594L207.197 233.216C206.093 232.481 204.768 232.15 203.447 232.28C202.127 232.41 200.892 232.992 199.952 233.929L169.523 261V267.21C169.509 267.057 169.502 266.904 169.5 266.75V163.25C169.5 161.725 170.106 160.262 171.184 159.184C172.262 158.106 173.725 157.5 175.25 157.5H324.75Z" fill="#9CA3AF" fill-opacity="0.6"/>
<path d="M146.436 328H143.586L135.011 315.025V328H132.161V310.6H135.011L143.586 323.55V310.6H146.436V328ZM162.803 320.775C162.803 321.292 162.77 321.758 162.703 322.175H152.178C152.262 323.275 152.67 324.158 153.403 324.825C154.137 325.492 155.037 325.825 156.103 325.825C157.637 325.825 158.72 325.183 159.353 323.9H162.428C162.012 325.167 161.253 326.208 160.153 327.025C159.07 327.825 157.72 328.225 156.103 328.225C154.787 328.225 153.603 327.933 152.553 327.35C151.52 326.75 150.703 325.917 150.103 324.85C149.52 323.767 149.228 322.517 149.228 321.1C149.228 319.683 149.512 318.442 150.078 317.375C150.662 316.292 151.47 315.458 152.503 314.875C153.553 314.292 154.753 314 156.103 314C157.403 314 158.562 314.283 159.578 314.85C160.595 315.417 161.387 316.217 161.953 317.25C162.52 318.267 162.803 319.442 162.803 320.775ZM159.828 319.875C159.812 318.825 159.437 317.983 158.703 317.35C157.97 316.717 157.062 316.4 155.978 316.4C154.995 316.4 154.153 316.717 153.453 317.35C152.753 317.967 152.337 318.808 152.203 319.875H159.828ZM172.558 314C173.641 314 174.608 314.225 175.458 314.675C176.325 315.125 177 315.792 177.483 316.675C177.966 317.558 178.208 318.625 178.208 319.875V328H175.383V320.3C175.383 319.067 175.075 318.125 174.458 317.475C173.841 316.808 173 316.475 171.933 316.475C170.866 316.475 170.016 316.808 169.383 317.475C168.766 318.125 168.458 319.067 168.458 320.3V328H165.608V314.225H168.458V315.8C168.925 315.233 169.516 314.792 170.233 314.475C170.966 314.158 171.741 314 172.558 314ZM188.968 314C190.018 314 190.952 314.225 191.768 314.675C192.602 315.125 193.252 315.792 193.718 316.675C194.202 317.558 194.443 318.625 194.443 319.875V328H191.618V320.3C191.618 319.067 191.31 318.125 190.693 317.475C190.077 316.808 189.235 316.475 188.168 316.475C187.102 316.475 186.252 316.808 185.618 317.475C185.002 318.125 184.693 319.067 184.693 320.3V328H181.843V309.5H184.693V315.825C185.177 315.242 185.785 314.792 186.518 314.475C187.268 314.158 188.085 314 188.968 314ZM210.554 314.225V328H207.704V326.375C207.254 326.942 206.662 327.392 205.929 327.725C205.212 328.042 204.445 328.2 203.629 328.2C202.545 328.2 201.57 327.975 200.704 327.525C199.854 327.075 199.179 326.408 198.679 325.525C198.195 324.642 197.954 323.575 197.954 322.325V314.225H200.779V321.9C200.779 323.133 201.087 324.083 201.704 324.75C202.32 325.4 203.162 325.725 204.229 325.725C205.295 325.725 206.137 325.4 206.754 324.75C207.387 324.083 207.704 323.133 207.704 321.9V314.225H210.554ZM230.989 314C232.072 314 233.039 314.225 233.889 314.675C234.756 315.125 235.431 315.792 235.914 316.675C236.414 317.558 236.664 318.625 236.664 319.875V328H233.839V320.3C233.839 319.067 233.531 318.125 232.914 317.475C232.297 316.808 231.456 316.475 230.389 316.475C229.322 316.475 228.472 316.808 227.839 317.475C227.222 318.125 226.914 319.067 226.914 320.3V328H224.089V320.3C224.089 319.067 223.781 318.125 223.164 317.475C222.547 316.808 221.706 316.475 220.639 316.475C219.572 316.475 218.722 316.808 218.089 317.475C217.472 318.125 217.164 319.067 217.164 320.3V328H214.314V314.225H217.164V315.8C217.631 315.233 218.222 314.792 218.939 314.475C219.656 314.158 220.422 314 221.239 314C222.339 314 223.322 314.233 224.189 314.7C225.056 315.167 225.722 315.842 226.189 316.725C226.606 315.892 227.256 315.233 228.139 314.75C229.022 314.25 229.972 314 230.989 314ZM239.341 321.05C239.341 319.667 239.624 318.442 240.191 317.375C240.774 316.308 241.557 315.483 242.541 314.9C243.541 314.3 244.641 314 245.841 314C246.924 314 247.866 314.217 248.666 314.65C249.482 315.067 250.132 315.592 250.616 316.225V314.225H253.491V328H250.616V325.95C250.132 326.6 249.474 327.142 248.641 327.575C247.807 328.008 246.857 328.225 245.791 328.225C244.607 328.225 243.524 327.925 242.541 327.325C241.557 326.708 240.774 325.858 240.191 324.775C239.624 323.675 239.341 322.433 239.341 321.05ZM250.616 321.1C250.616 320.15 250.416 319.325 250.016 318.625C249.632 317.925 249.124 317.392 248.491 317.025C247.857 316.658 247.174 316.475 246.441 316.475C245.707 316.475 245.024 316.658 244.391 317.025C243.757 317.375 243.241 317.9 242.841 318.6C242.457 319.283 242.266 320.1 242.266 321.05C242.266 322 242.457 322.833 242.841 323.55C243.241 324.267 243.757 324.817 244.391 325.2C245.041 325.567 245.724 325.75 246.441 325.75C247.174 325.75 247.857 325.567 248.491 325.2C249.124 324.833 249.632 324.3 250.016 323.6C250.416 322.883 250.616 322.05 250.616 321.1ZM265.178 312.4C264.661 312.4 264.228 312.225 263.878 311.875C263.528 311.525 263.353 311.092 263.353 310.575C263.353 310.058 263.528 309.625 263.878 309.275C264.228 308.925 264.661 308.75 265.178 308.75C265.678 308.75 266.103 308.925 266.453 309.275C266.803 309.625 266.978 310.058 266.978 310.575C266.978 311.092 266.803 311.525 266.453 311.875C266.103 312.225 265.678 312.4 265.178 312.4ZM266.578 314.225V328H263.728V314.225H266.578ZM286.995 314C288.078 314 289.045 314.225 289.895 314.675C290.761 315.125 291.436 315.792 291.92 316.675C292.42 317.558 292.67 318.625 292.67 319.875V328H289.845V320.3C289.845 319.067 289.536 318.125 288.92 317.475C288.303 316.808 287.461 316.475 286.395 316.475C285.328 316.475 284.478 316.808 283.845 317.475C283.228 318.125 282.92 319.067 282.92 320.3V328H280.095V320.3C280.095 319.067 279.786 318.125 279.17 317.475C278.553 316.808 277.711 316.475 276.645 316.475C275.578 316.475 274.728 316.808 274.095 317.475C273.478 318.125 273.17 319.067 273.17 320.3V328H270.32V314.225H273.17V315.8C273.636 315.233 274.228 314.792 274.945 314.475C275.661 314.158 276.428 314 277.245 314C278.345 314 279.328 314.233 280.195 314.7C281.061 315.167 281.728 315.842 282.195 316.725C282.611 315.892 283.261 315.233 284.145 314.75C285.028 314.25 285.978 314 286.995 314ZM295.346 321.05C295.346 319.667 295.63 318.442 296.196 317.375C296.78 316.308 297.563 315.483 298.546 314.9C299.546 314.3 300.646 314 301.846 314C302.93 314 303.871 314.217 304.671 314.65C305.488 315.067 306.138 315.592 306.621 316.225V314.225H309.496V328H306.621V325.95C306.138 326.6 305.48 327.142 304.646 327.575C303.813 328.008 302.863 328.225 301.796 328.225C300.613 328.225 299.53 327.925 298.546 327.325C297.563 326.708 296.78 325.858 296.196 324.775C295.63 323.675 295.346 322.433 295.346 321.05ZM306.621 321.1C306.621 320.15 306.421 319.325 306.021 318.625C305.638 317.925 305.13 317.392 304.496 317.025C303.863 316.658 303.18 316.475 302.446 316.475C301.713 316.475 301.03 316.658 300.396 317.025C299.763 317.375 299.246 317.9 298.846 318.6C298.463 319.283 298.271 320.1 298.271 321.05C298.271 322 298.463 322.833 298.846 323.55C299.246 324.267 299.763 324.817 300.396 325.2C301.046 325.567 301.73 325.75 302.446 325.75C303.18 325.75 303.863 325.567 304.496 325.2C305.13 324.833 305.638 324.3 306.021 323.6C306.421 322.883 306.621 322.05 306.621 321.1ZM318.79 314C319.856 314 320.798 314.217 321.615 314.65C322.448 315.067 323.098 315.592 323.565 316.225V314.225H326.44V328.225C326.44 329.492 326.173 330.617 325.64 331.6C325.106 332.6 324.331 333.383 323.315 333.95C322.315 334.517 321.115 334.8 319.715 334.8C317.848 334.8 316.298 334.358 315.065 333.475C313.831 332.608 313.131 331.425 312.965 329.925H315.79C316.006 330.642 316.465 331.217 317.165 331.65C317.881 332.1 318.731 332.325 319.715 332.325C320.865 332.325 321.79 331.975 322.49 331.275C323.206 330.575 323.565 329.558 323.565 328.225V325.925C323.081 326.575 322.423 327.125 321.59 327.575C320.773 328.008 319.84 328.225 318.79 328.225C317.59 328.225 316.49 327.925 315.49 327.325C314.506 326.708 313.723 325.858 313.14 324.775C312.573 323.675 312.29 322.433 312.29 321.05C312.29 319.667 312.573 318.442 313.14 317.375C313.723 316.308 314.506 315.483 315.49 314.9C316.49 314.3 317.59 314 318.79 314ZM323.565 321.1C323.565 320.15 323.365 319.325 322.965 318.625C322.581 317.925 322.073 317.392 321.44 317.025C320.806 316.658 320.123 316.475 319.39 316.475C318.656 316.475 317.973 316.658 317.34 317.025C316.706 317.375 316.19 317.9 315.79 318.6C315.406 319.283 315.215 320.1 315.215 321.05C315.215 322 315.406 322.833 315.79 323.55C316.19 324.267 316.706 324.817 317.34 325.2C317.99 325.567 318.673 325.75 319.39 325.75C320.123 325.75 320.806 325.567 321.44 325.2C322.073 324.833 322.581 324.3 322.965 323.6C323.365 322.883 323.565 322.05 323.565 321.1ZM342.808 320.775C342.808 321.292 342.775 321.758 342.708 322.175H332.183C332.266 323.275 332.675 324.158 333.408 324.825C334.141 325.492 335.041 325.825 336.108 325.825C337.641 325.825 338.725 325.183 339.358 323.9H342.433C342.016 325.167 341.258 326.208 340.158 327.025C339.075 327.825 337.725 328.225 336.108 328.225C334.791 328.225 333.608 327.933 332.558 327.35C331.525 326.75 330.708 325.917 330.108 324.85C329.525 323.767 329.233 322.517 329.233 321.1C329.233 319.683 329.516 318.442 330.083 317.375C330.666 316.292 331.475 315.458 332.508 314.875C333.558 314.292 334.758 314 336.108 314C337.408 314 338.566 314.283 339.583 314.85C340.6 315.417 341.391 316.217 341.958 317.25C342.525 318.267 342.808 319.442 342.808 320.775ZM339.833 319.875C339.816 318.825 339.441 317.983 338.708 317.35C337.975 316.717 337.066 316.4 335.983 316.4C335 316.4 334.158 316.717 333.458 317.35C332.758 317.967 332.341 318.808 332.208 319.875H339.833ZM362.288 314C363.371 314 364.338 314.225 365.188 314.675C366.054 315.125 366.729 315.792 367.213 316.675C367.713 317.558 367.963 318.625 367.963 319.875V328H365.138V320.3C365.138 319.067 364.829 318.125 364.213 317.475C363.596 316.808 362.754 316.475 361.688 316.475C360.621 316.475 359.771 316.808 359.138 317.475C358.521 318.125 358.213 319.067 358.213 320.3V328H355.388V320.3C355.388 319.067 355.079 318.125 354.463 317.475C353.846 316.808 353.004 316.475 351.938 316.475C350.871 316.475 350.021 316.808 349.388 317.475C348.771 318.125 348.463 319.067 348.463 320.3V328H345.613V314.225H348.463V315.8C348.929 315.233 349.521 314.792 350.238 314.475C350.954 314.158 351.721 314 352.538 314C353.638 314 354.621 314.233 355.488 314.7C356.354 315.167 357.021 315.842 357.488 316.725C357.904 315.892 358.554 315.233 359.438 314.75C360.321 314.25 361.271 314 362.288 314ZM178.391 359.05C178.391 357.667 178.674 356.442 179.241 355.375C179.824 354.308 180.607 353.483 181.591 352.9C182.591 352.3 183.691 352 184.891 352C185.974 352 186.916 352.217 187.716 352.65C188.532 353.067 189.182 353.592 189.666 354.225V352.225H192.541V366H189.666V363.95C189.182 364.6 188.524 365.142 187.691 365.575C186.857 366.008 185.907 366.225 184.841 366.225C183.657 366.225 182.574 365.925 181.591 365.325C180.607 364.708 179.824 363.858 179.241 362.775C178.674 361.675 178.391 360.433 178.391 359.05ZM189.666 359.1C189.666 358.15 189.466 357.325 189.066 356.625C188.682 355.925 188.174 355.392 187.541 355.025C186.907 354.658 186.224 354.475 185.491 354.475C184.757 354.475 184.074 354.658 183.441 355.025C182.807 355.375 182.291 355.9 181.891 356.6C181.507 357.283 181.316 358.1 181.316 359.05C181.316 360 181.507 360.833 181.891 361.55C182.291 362.267 182.807 362.817 183.441 363.2C184.091 363.567 184.774 363.75 185.491 363.75C186.224 363.75 186.907 363.567 187.541 363.2C188.174 362.833 188.682 362.3 189.066 361.6C189.466 360.883 189.666 360.05 189.666 359.1ZM195.334 359.05C195.334 357.667 195.618 356.442 196.184 355.375C196.768 354.308 197.551 353.483 198.534 352.9C199.534 352.3 200.643 352 201.859 352C202.759 352 203.643 352.2 204.509 352.6C205.393 352.983 206.093 353.5 206.609 354.15V347.5H209.484V366H206.609V363.925C206.143 364.592 205.493 365.142 204.659 365.575C203.843 366.008 202.901 366.225 201.834 366.225C200.634 366.225 199.534 365.925 198.534 365.325C197.551 364.708 196.768 363.858 196.184 362.775C195.618 361.675 195.334 360.433 195.334 359.05ZM206.609 359.1C206.609 358.15 206.409 357.325 206.009 356.625C205.626 355.925 205.118 355.392 204.484 355.025C203.851 354.658 203.168 354.475 202.434 354.475C201.701 354.475 201.018 354.658 200.384 355.025C199.751 355.375 199.234 355.9 198.834 356.6C198.451 357.283 198.259 358.1 198.259 359.05C198.259 360 198.451 360.833 198.834 361.55C199.234 362.267 199.751 362.817 200.384 363.2C201.034 363.567 201.718 363.75 202.434 363.75C203.168 363.75 203.851 363.567 204.484 363.2C205.118 362.833 205.626 362.3 206.009 361.6C206.409 360.883 206.609 360.05 206.609 359.1ZM214.678 350.4C214.161 350.4 213.728 350.225 213.378 349.875C213.028 349.525 212.853 349.092 212.853 348.575C212.853 348.058 213.028 347.625 213.378 347.275C213.728 346.925 214.161 346.75 214.678 346.75C215.178 346.75 215.603 346.925 215.953 347.275C216.303 347.625 216.478 348.058 216.478 348.575C216.478 349.092 216.303 349.525 215.953 349.875C215.603 350.225 215.178 350.4 214.678 350.4ZM216.078 352.225V366H213.228V352.225H216.078ZM218.869 359.1C218.869 357.683 219.153 356.442 219.719 355.375C220.303 354.292 221.103 353.458 222.119 352.875C223.136 352.292 224.303 352 225.619 352C227.286 352 228.661 352.4 229.744 353.2C230.844 353.983 231.586 355.108 231.969 356.575H228.894C228.644 355.892 228.244 355.358 227.694 354.975C227.144 354.592 226.453 354.4 225.619 354.4C224.453 354.4 223.519 354.817 222.819 355.65C222.136 356.467 221.794 357.617 221.794 359.1C221.794 360.583 222.136 361.742 222.819 362.575C223.519 363.408 224.453 363.825 225.619 363.825C227.269 363.825 228.361 363.1 228.894 361.65H231.969C231.569 363.05 230.819 364.167 229.719 365C228.619 365.817 227.253 366.225 225.619 366.225C224.303 366.225 223.136 365.933 222.119 365.35C221.103 364.75 220.303 363.917 219.719 362.85C219.153 361.767 218.869 360.517 218.869 359.1ZM236.26 350.4C235.743 350.4 235.31 350.225 234.96 349.875C234.61 349.525 234.435 349.092 234.435 348.575C234.435 348.058 234.61 347.625 234.96 347.275C235.31 346.925 235.743 346.75 236.26 346.75C236.76 346.75 237.185 346.925 237.535 347.275C237.885 347.625 238.06 348.058 238.06 348.575C238.06 349.092 237.885 349.525 237.535 349.875C237.185 350.225 236.76 350.4 236.26 350.4ZM237.66 352.225V366H234.81V352.225H237.66ZM247.376 366.225C246.076 366.225 244.901 365.933 243.851 365.35C242.801 364.75 241.976 363.917 241.376 362.85C240.776 361.767 240.476 360.517 240.476 359.1C240.476 357.7 240.785 356.458 241.401 355.375C242.018 354.292 242.86 353.458 243.926 352.875C244.993 352.292 246.185 352 247.501 352C248.818 352 250.01 352.292 251.076 352.875C252.143 353.458 252.985 354.292 253.601 355.375C254.218 356.458 254.526 357.7 254.526 359.1C254.526 360.5 254.21 361.742 253.576 362.825C252.943 363.908 252.076 364.75 250.976 365.35C249.893 365.933 248.693 366.225 247.376 366.225ZM247.376 363.75C248.11 363.75 248.793 363.575 249.426 363.225C250.076 362.875 250.601 362.35 251.001 361.65C251.401 360.95 251.601 360.1 251.601 359.1C251.601 358.1 251.41 357.258 251.026 356.575C250.643 355.875 250.135 355.35 249.501 355C248.868 354.65 248.185 354.475 247.451 354.475C246.718 354.475 246.035 354.65 245.401 355C244.785 355.35 244.293 355.875 243.926 356.575C243.56 357.258 243.376 358.1 243.376 359.1C243.376 360.583 243.751 361.733 244.501 362.55C245.268 363.35 246.226 363.75 247.376 363.75ZM264.294 352C265.377 352 266.344 352.225 267.194 352.675C268.06 353.125 268.735 353.792 269.219 354.675C269.702 355.558 269.944 356.625 269.944 357.875V366H267.119V358.3C267.119 357.067 266.81 356.125 266.194 355.475C265.577 354.808 264.735 354.475 263.669 354.475C262.602 354.475 261.752 354.808 261.119 355.475C260.502 356.125 260.194 357.067 260.194 358.3V366H257.344V352.225H260.194V353.8C260.66 353.233 261.252 352.792 261.969 352.475C262.702 352.158 263.477 352 264.294 352ZM272.629 359.05C272.629 357.667 272.912 356.442 273.479 355.375C274.062 354.308 274.846 353.483 275.829 352.9C276.829 352.3 277.929 352 279.129 352C280.212 352 281.154 352.217 281.954 352.65C282.771 353.067 283.421 353.592 283.904 354.225V352.225H286.779V366H283.904V363.95C283.421 364.6 282.762 365.142 281.929 365.575C281.096 366.008 280.146 366.225 279.079 366.225C277.896 366.225 276.812 365.925 275.829 365.325C274.846 364.708 274.062 363.858 273.479 362.775C272.912 361.675 272.629 360.433 272.629 359.05ZM283.904 359.1C283.904 358.15 283.704 357.325 283.304 356.625C282.921 355.925 282.412 355.392 281.779 355.025C281.146 354.658 280.462 354.475 279.729 354.475C278.996 354.475 278.312 354.658 277.679 355.025C277.046 355.375 276.529 355.9 276.129 356.6C275.746 357.283 275.554 358.1 275.554 359.05C275.554 360 275.746 360.833 276.129 361.55C276.529 362.267 277.046 362.817 277.679 363.2C278.329 363.567 279.012 363.75 279.729 363.75C280.462 363.75 281.146 363.567 281.779 363.2C282.412 362.833 282.921 362.3 283.304 361.6C283.704 360.883 283.904 360.05 283.904 359.1ZM289.572 359.05C289.572 357.667 289.856 356.442 290.422 355.375C291.006 354.308 291.789 353.483 292.772 352.9C293.772 352.3 294.881 352 296.097 352C296.997 352 297.881 352.2 298.747 352.6C299.631 352.983 300.331 353.5 300.847 354.15V347.5H303.722V366H300.847V363.925C300.381 364.592 299.731 365.142 298.897 365.575C298.081 366.008 297.139 366.225 296.072 366.225C294.872 366.225 293.772 365.925 292.772 365.325C291.789 364.708 291.006 363.858 290.422 362.775C289.856 361.675 289.572 360.433 289.572 359.05ZM300.847 359.1C300.847 358.15 300.647 357.325 300.247 356.625C299.864 355.925 299.356 355.392 298.722 355.025C298.089 354.658 297.406 354.475 296.672 354.475C295.939 354.475 295.256 354.658 294.622 355.025C293.989 355.375 293.472 355.9 293.072 356.6C292.689 357.283 292.497 358.1 292.497 359.05C292.497 360 292.689 360.833 293.072 361.55C293.472 362.267 293.989 362.817 294.622 363.2C295.272 363.567 295.956 363.75 296.672 363.75C297.406 363.75 298.089 363.567 298.722 363.2C299.356 362.833 299.864 362.3 300.247 361.6C300.647 360.883 300.847 360.05 300.847 359.1ZM306.516 359.05C306.516 357.667 306.799 356.442 307.366 355.375C307.949 354.308 308.732 353.483 309.716 352.9C310.716 352.3 311.816 352 313.016 352C314.099 352 315.041 352.217 315.841 352.65C316.657 353.067 317.307 353.592 317.791 354.225V352.225H320.666V366H317.791V363.95C317.307 364.6 316.649 365.142 315.816 365.575C314.982 366.008 314.032 366.225 312.966 366.225C311.782 366.225 310.699 365.925 309.716 365.325C308.732 364.708 307.949 363.858 307.366 362.775C306.799 361.675 306.516 360.433 306.516 359.05ZM317.791 359.1C317.791 358.15 317.591 357.325 317.191 356.625C316.807 355.925 316.299 355.392 315.666 355.025C315.032 354.658 314.349 354.475 313.616 354.475C312.882 354.475 312.199 354.658 311.566 355.025C310.932 355.375 310.416 355.9 310.016 356.6C309.632 357.283 309.441 358.1 309.441 359.05C309.441 360 309.632 360.833 310.016 361.55C310.416 362.267 310.932 362.817 311.566 363.2C312.216 363.567 312.899 363.75 313.616 363.75C314.349 363.75 315.032 363.567 315.666 363.2C316.299 362.833 316.807 362.3 317.191 361.6C317.591 360.883 317.791 360.05 317.791 359.1Z" fill="#9CA3AF" fill-opacity="0.6"/>
</svg>
