<svg width="109" height="108" viewBox="0 0 109 108" fill="none" xmlns="http://www.w3.org/2000/svg">
<path d="M58.09 26.6699C61.76 28.4699 67.34 36.1899 72.46 45.5899C82.73 47.5999 91.46 50.1499 93.87 52.6599C92.29 57.4199 87.72 64.8399 80.63 72.5399C81.5 82.4599 81.28 90.3799 80.21 94.7199C74.2 92.7699 67.2 91.4099 58.1 87.8499C49 91.3999 42 92.7599 35.99 94.7199C34.91 90.3799 34.69 82.4599 35.57 72.5399C28.48 64.8399 23.91 57.4199 22.33 52.6599C24.74 50.1499 33.47 47.5899 43.74 45.5899C48.86 36.1899 54.43 28.4699 58.11 26.6699H58.09Z" fill="#6366F1"/>
<path d="M22.25 0C23.85 0.78 26.28 4.14 28.51 8.24C32.98 9.11 36.78 10.23 37.83 11.32C37.14 13.39 35.15 16.63 32.06 19.98C32.44 24.3 32.35 27.75 31.88 29.64C29.26 28.79 26.22 28.2 22.25 26.65C18.29 28.2 15.24 28.79 12.62 29.64C12.15 27.75 12.06 24.3 12.44 19.98C9.35004 16.63 7.36004 13.39 6.67004 11.32C7.72004 10.23 11.52 9.11 15.99 8.24C18.22 4.14 20.65 0.78 22.25 0Z" fill="#6366F1"/>
<path d="M84.04 14.27C85.02 14.75 86.51 16.81 87.87 19.32C90.61 19.85 92.94 20.54 93.58 21.21C93.16 22.48 91.94 24.46 90.05 26.51C90.28 29.16 90.22 31.27 89.94 32.43C88.34 31.91 86.47 31.55 84.04 30.6C81.61 31.55 79.75 31.91 78.14 32.43C77.85 31.27 77.79 29.16 78.03 26.51C76.14 24.46 74.92 22.48 74.5 21.21C75.14 20.54 77.47 19.86 80.21 19.32C81.58 16.81 83.06 14.75 84.04 14.27Z" fill="#818CF8"/>
<path d="M57.86 92.3501C58.7 92.7601 59.98 94.5301 61.15 96.6801C63.5 97.1401 65.5 97.7301 66.05 98.3001C65.69 99.3901 64.64 101.09 63.02 102.85C63.22 105.12 63.17 106.94 62.92 107.93C61.54 107.48 59.94 107.17 57.85 106.36C55.76 107.17 54.16 107.49 52.78 107.93C52.53 106.94 52.48 105.12 52.68 102.85C51.06 101.09 50.01 99.3901 49.65 98.3001C50.2 97.7201 52.2 97.1401 54.56 96.6801C55.73 94.5301 57.01 92.7601 57.85 92.3501H57.86Z" fill="#A5B4FC"/>
<path d="M100.17 63.02C101.01 63.43 102.29 65.2 103.46 67.35C105.81 67.81 107.81 68.4 108.37 68.97C108.01 70.06 106.96 71.76 105.34 73.52C105.54 75.79 105.49 77.61 105.24 78.6C103.86 78.15 102.26 77.84 100.17 77.03C98.08 77.84 96.48 78.16 95.1 78.6C94.85 77.61 94.8 75.79 95 73.52C93.38 71.76 92.33 70.06 91.97 68.97C92.52 68.39 94.52 67.81 96.88 67.35C98.05 65.2 99.33 63.43 100.17 63.02Z" fill="#6366F1"/>
<path d="M11.27 69.96C12.43 70.53 14.18 72.96 15.8 75.92C19.03 76.55 21.78 77.36 22.54 78.15C22.04 79.65 20.6 81.99 18.37 84.41C18.64 87.53 18.58 90.03 18.24 91.4C16.35 90.79 14.14 90.36 11.28 89.24C8.41002 90.36 6.21002 90.79 4.32002 91.4C3.98002 90.03 3.91002 87.54 4.19002 84.41C1.96002 81.99 0.52002 79.65 0.0200195 78.15C0.78002 77.36 3.53002 76.55 6.76002 75.92C8.37002 72.96 10.13 70.53 11.29 69.96H11.27Z" fill="#818CF8"/>
</svg>